<svg width="32" height="38" viewBox="0 0 32 38" fill="none" xmlns="http://www.w3.org/2000/svg">
<path d="M26.1659 19.9172C26.1224 15.2063 30.1221 12.9144 30.305 12.8077C28.0398 9.58769 24.5288 9.14773 23.295 9.11265C20.3462 8.81009 17.4859 10.833 15.9837 10.833C14.4516 10.833 12.1384 9.14188 9.64538 9.19158C6.43723 9.23981 3.43596 11.0508 1.78991 13.863C-1.60713 19.5971 0.926409 28.0236 4.18103 32.6585C5.8091 34.9284 7.7115 37.463 10.2016 37.3738C12.6377 37.2759 13.5476 35.8595 16.4874 35.8595C19.4003 35.8595 20.2548 37.3738 22.7943 37.3168C25.4088 37.2759 27.0549 35.0366 28.6259 32.7462C30.5074 30.1444 31.2629 27.5822 31.2929 27.4506C31.2314 27.4301 26.2153 25.5636 26.1659 19.9172Z" fill="#0A090C"/>
<path d="M21.3686 6.06363C22.6789 4.46604 23.5754 2.29256 23.3265 0.0869141C21.4301 0.168767 19.0585 1.36586 17.6927 2.92838C16.4844 4.30526 15.4051 6.56206 15.6839 8.68439C17.8142 8.83932 20.0014 7.63638 21.3686 6.06363Z" fill="#0A090C"/>
</svg>
