<svg width="40" height="40" viewBox="0 0 40 40" fill="none" xmlns="http://www.w3.org/2000/svg">
<mask id="mask0_122_352" style="mask-type:alpha" maskUnits="userSpaceOnUse" x="0" y="0" width="40" height="40">
<rect width="40" height="40" rx="5" fill="#D9D9D9"/>
</mask>
<g mask="url(#mask0_122_352)">
<path opacity="0.8" d="M15.3026 32.0131C12.0032 33.4271 8.33301 31.0069 8.33301 27.4174V7.625C8.33301 6.875 8.61101 6.22933 9.16701 5.688C9.72234 5.146 10.375 4.875 11.125 4.875H28.875C29.625 4.875 30.2777 5.146 30.833 5.688C31.389 6.22933 31.667 6.875 31.667 7.625V27.4174C31.667 31.0069 27.9968 33.4271 24.6975 32.0131L21.9696 30.8441C20.7118 30.3051 19.2882 30.3051 18.0305 30.8441L15.3026 32.0131ZM11.125 23.2642C11.125 26.8297 14.7686 29.2352 18.0474 27.8343C19.2946 27.3014 20.7054 27.3014 21.9526 27.8343C25.2314 29.2352 28.875 26.8297 28.875 23.2642V12.625C28.875 9.86358 26.6364 7.625 23.875 7.625H16.125C13.3636 7.625 11.125 9.86358 11.125 12.625V23.2642Z" fill="#FEFBFF"/>
</g>
</svg>
