<svg width="57" height="57" viewBox="0 0 57 57" fill="none" xmlns="http://www.w3.org/2000/svg">
<path d="M29.5 16C29.5 15.1716 28.8284 14.5 28 14.5C27.1716 14.5 26.5 15.1716 26.5 16L29.5 16ZM26.9393 43.0607C27.5251 43.6464 28.4749 43.6464 29.0607 43.0607L38.6066 33.5147C39.1924 32.9289 39.1924 31.9792 38.6066 31.3934C38.0208 30.8076 37.0711 30.8076 36.4853 31.3934L28 39.8787L19.5147 31.3934C18.9289 30.8076 17.9792 30.8076 17.3934 31.3934C16.8076 31.9792 16.8076 32.9289 17.3934 33.5147L26.9393 43.0607ZM26.5 16L26.5 42L29.5 42L29.5 16L26.5 16Z" fill="#F1F1F1"/>
<circle cx="28.5" cy="28.5" r="27" transform="rotate(90 28.5 28.5)" stroke="#FEFBFF" stroke-width="3"/>
</svg>
