<svg width="203" height="59" viewBox="0 0 203 59" fill="none" xmlns="http://www.w3.org/2000/svg">
<path d="M201.26 51.7221C201.26 54.8378 198.683 57.3616 195.497 57.3616H6.89566C3.71045 57.3616 1.125 54.8378 1.125 51.7221V6.74848C1.125 3.63421 3.71045 1.10156 6.89566 1.10156H195.495C198.683 1.10156 201.258 3.63421 201.258 6.74848L201.26 51.7221Z" fill="#FEFBFF"/>
<path d="M194.888 1.17163C198.358 1.17163 201.182 3.92503 201.182 7.30877V51.1585C201.182 54.5422 198.358 57.2956 194.888 57.2956H7.49568C4.02518 57.2956 1.20118 54.5422 1.20118 51.1585V7.30877C1.20118 3.92503 4.02518 1.17163 7.49568 1.17163H194.888ZM194.888 0.000480652H7.49568C3.37493 0.000480652 0 3.29104 0 7.30877V51.1585C0 55.1762 3.37493 58.4668 7.49568 58.4668H194.888C199.008 58.4668 202.383 55.1762 202.383 51.1585V7.30877C202.383 3.29104 199.008 0.000480652 194.888 0.000480652Z" fill="#A6A6A6"/>
<path d="M45.165 28.9172C45.1215 24.2063 49.1212 21.9144 49.3041 21.8077C47.0389 18.5877 43.5279 18.1477 42.2941 18.1126C39.3453 17.8101 36.485 19.833 34.9828 19.833C33.4507 19.833 31.1375 18.1419 28.6445 18.1916C25.4363 18.2398 22.435 20.0508 20.789 22.863C17.392 28.5971 19.9255 37.0236 23.1801 41.6585C24.8082 43.9284 26.7106 46.463 29.2006 46.3738C31.6367 46.2759 32.5467 44.8595 35.4865 44.8595C38.3994 44.8595 39.2539 46.3738 41.7934 46.3168C44.4079 46.2759 46.0539 44.0366 47.625 41.7462C49.5064 39.1444 50.262 36.5822 50.292 36.4506C50.2305 36.4301 45.2144 34.5636 45.165 28.9172Z" fill="#0A090C"/>
<path d="M40.3677 15.0636C41.678 13.466 42.5744 11.2926 42.3256 9.08691C40.4292 9.16877 38.0575 10.3659 36.6918 11.9284C35.4835 13.3053 34.4042 15.5621 34.683 17.6844C36.8133 17.8393 39.0005 16.6364 40.3677 15.0636Z" fill="#0A090C"/>
<path d="M73.5329 14.631C73.5329 16.3514 73.0037 17.6464 71.9468 18.5161C70.9679 19.3186 69.5767 19.7205 67.7747 19.7205C66.8813 19.7205 66.1167 19.6825 65.4766 19.6065V10.2066C66.3116 10.075 67.2111 10.0078 68.1825 10.0078C69.899 10.0078 71.1928 10.3718 72.0653 11.0997C73.0427 11.9226 73.5329 13.0992 73.5329 14.631ZM71.8764 14.6734C71.8764 13.5582 71.5736 12.7031 70.9679 12.1068C70.3623 11.5119 69.4778 11.2137 68.3129 11.2137C67.8182 11.2137 67.397 11.2458 67.0477 11.3131V18.4591C67.241 18.4884 67.5948 18.5015 68.109 18.5015C69.3114 18.5015 70.2393 18.1756 70.893 17.5237C71.5466 16.8718 71.8764 15.9217 71.8764 14.6734Z" fill="#0A090C"/>
<path d="M82.3161 16.1339C82.3161 17.1936 82.0057 18.0618 81.3851 18.743C80.7345 19.4431 79.8725 19.7924 78.7961 19.7924C77.7587 19.7924 76.9326 19.4577 76.3165 18.7854C75.7019 18.1145 75.3945 17.2682 75.3945 16.2479C75.3945 15.1809 75.7108 14.3054 76.3465 13.6257C76.9821 12.946 77.8366 12.6055 78.913 12.6055C79.9504 12.6055 80.7839 12.9402 81.4151 13.6111C82.0147 14.263 82.3161 15.1049 82.3161 16.1339ZM80.6865 16.1836C80.6865 15.5478 80.5456 15.0026 80.2652 14.548C79.9354 13.9984 79.4662 13.7236 78.856 13.7236C78.2249 13.7236 77.7452 13.9984 77.4154 14.548C77.1335 15.0026 76.9941 15.5566 76.9941 16.2114C76.9941 16.8472 77.135 17.3924 77.4154 17.847C77.7557 18.3966 78.2294 18.6713 78.841 18.6713C79.4407 18.6713 79.9114 18.3922 80.2502 17.8324C80.5411 17.369 80.6865 16.8194 80.6865 16.1836Z" fill="#0A090C"/>
<path d="M94.0926 12.7451L91.8814 19.6354H90.4422L89.5262 16.6434C89.2939 15.8965 89.105 15.1539 88.9581 14.4173H88.9296C88.7932 15.1744 88.6043 15.9155 88.3614 16.6434L87.3885 19.6354H85.9328L83.8535 12.7451H85.4681L86.2671 16.0207C86.4605 16.7954 86.6194 17.5335 86.7468 18.2322H86.7753C86.8923 17.6563 87.0857 16.9225 87.3585 16.0353L88.3614 12.7466H89.6417L90.6026 15.9651C90.835 16.7501 91.0239 17.5057 91.1693 18.2336H91.2128C91.3192 17.5247 91.4796 16.7691 91.6925 15.9651L92.55 12.7466H94.0926V12.7451Z" fill="#0A090C"/>
<path d="M102.237 19.6375H100.666V15.691C100.666 14.4749 100.193 13.8669 99.2421 13.8669C98.7759 13.8669 98.3996 14.0335 98.1073 14.3682C97.8179 14.7029 97.671 15.0976 97.671 15.5492V19.636H96.0999V14.7161C96.0999 14.111 96.0804 13.4547 96.043 12.7443H97.4237L97.4971 13.8216H97.5406C97.7235 13.4868 97.9963 13.2106 98.3546 12.9899C98.7804 12.7326 99.2571 12.6025 99.7788 12.6025C100.438 12.6025 100.987 12.8101 101.423 13.2267C101.966 13.7368 102.237 14.4983 102.237 15.5098V19.6375Z" fill="#0A090C"/>
<path d="M106.572 19.6368H105.002V9.58496H106.572V19.6368Z" fill="#0A090C"/>
<path d="M115.82 16.1339C115.82 17.1936 115.51 18.0618 114.889 18.743C114.238 19.4431 113.375 19.7924 112.3 19.7924C111.261 19.7924 110.435 19.4577 109.82 18.7854C109.206 18.1145 108.898 17.2682 108.898 16.2479C108.898 15.1809 109.215 14.3054 109.85 13.6257C110.486 12.946 111.341 12.6055 112.415 12.6055C113.454 12.6055 114.286 12.9402 114.919 13.6111C115.519 14.263 115.82 15.1049 115.82 16.1339ZM114.189 16.1836C114.189 15.5478 114.048 15.0026 113.768 14.548C113.439 13.9984 112.969 13.7236 112.36 13.7236C111.727 13.7236 111.248 13.9984 110.919 14.548C110.637 15.0026 110.498 15.5566 110.498 16.2114C110.498 16.8472 110.639 17.3924 110.919 17.847C111.26 18.3966 111.733 18.6713 112.345 18.6713C112.945 18.6713 113.414 18.3922 113.753 17.8324C114.045 17.369 114.189 16.8194 114.189 16.1836Z" fill="#0A090C"/>
<path d="M123.425 19.636H122.014L121.897 18.8424H121.854C121.371 19.4753 120.683 19.7924 119.789 19.7924C119.122 19.7924 118.582 19.5834 118.176 19.1683C117.807 18.7912 117.623 18.322 117.623 17.7651C117.623 16.9232 117.983 16.2815 118.707 15.8372C119.43 15.3928 120.446 15.1751 121.755 15.1853V15.0567C121.755 14.149 121.266 13.6959 120.287 13.6959C119.59 13.6959 118.975 13.8669 118.445 14.206L118.125 13.2004C118.782 12.8043 119.593 12.6055 120.549 12.6055C122.396 12.6055 123.323 13.5555 123.323 15.4557V17.9931C123.323 18.6816 123.357 19.2297 123.425 19.636ZM121.794 17.2682V16.2055C120.061 16.1763 119.194 16.6396 119.194 17.5941C119.194 17.9537 119.293 18.2226 119.495 18.4024C119.698 18.5822 119.956 18.6713 120.263 18.6713C120.608 18.6713 120.93 18.5646 121.224 18.3527C121.519 18.1393 121.701 17.8689 121.768 17.5371C121.785 17.4626 121.794 17.3719 121.794 17.2682Z" fill="#0A090C"/>
<path d="M132.352 19.6368H130.957L130.884 18.5303H130.84C130.395 19.3722 129.637 19.7932 128.571 19.7932C127.719 19.7932 127.01 19.4672 126.448 18.8153C125.886 18.1634 125.605 17.3171 125.605 16.2779C125.605 15.1626 125.91 14.2593 126.521 13.5694C127.114 12.9263 127.839 12.6047 128.703 12.6047C129.652 12.6047 130.316 12.9161 130.694 13.5402H130.724V9.58496H132.296V17.7805C132.296 18.4514 132.314 19.0697 132.352 19.6368ZM130.724 16.731V15.5821C130.724 15.3834 130.709 15.2226 130.68 15.0998C130.592 14.7315 130.401 14.4216 130.112 14.1716C129.82 13.9217 129.467 13.796 129.061 13.796C128.475 13.796 128.016 14.0226 127.679 14.4771C127.344 14.9317 127.175 15.512 127.175 16.2209C127.175 16.902 127.335 17.4545 127.658 17.8799C127.998 18.333 128.457 18.5595 129.031 18.5595C129.547 18.5595 129.959 18.371 130.272 17.9924C130.575 17.6431 130.724 17.2221 130.724 16.731Z" fill="#0A090C"/>
<path d="M145.789 16.1339C145.789 17.1936 145.478 18.0618 144.858 18.743C144.207 19.4431 143.347 19.7924 142.269 19.7924C141.233 19.7924 140.407 19.4577 139.789 18.7854C139.175 18.1145 138.867 17.2682 138.867 16.2479C138.867 15.1809 139.184 14.3054 139.819 13.6257C140.455 12.946 141.309 12.6055 142.387 12.6055C143.423 12.6055 144.258 12.9402 144.888 13.6111C145.487 14.263 145.789 15.1049 145.789 16.1339ZM144.161 16.1836C144.161 15.5478 144.02 15.0026 143.739 14.548C143.408 13.9984 142.94 13.7236 142.329 13.7236C141.699 13.7236 141.219 13.9984 140.888 14.548C140.606 15.0026 140.467 15.5566 140.467 16.2114C140.467 16.8472 140.608 17.3924 140.888 17.847C141.228 18.3966 141.702 18.6713 142.314 18.6713C142.913 18.6713 143.386 18.3922 143.724 17.8324C144.014 17.369 144.161 16.8194 144.161 16.1836Z" fill="#0A090C"/>
<path d="M154.236 19.6375H152.666V15.691C152.666 14.4749 152.193 13.8669 151.241 13.8669C150.774 13.8669 150.398 14.0335 150.107 14.3682C149.816 14.7029 149.671 15.0976 149.671 15.5492V19.636H148.098V14.7161C148.098 14.111 148.08 13.4547 148.043 12.7443H149.422L149.496 13.8216H149.539C149.723 13.4868 149.996 13.2106 150.353 12.9899C150.78 12.7326 151.256 12.6025 151.779 12.6025C152.437 12.6025 152.986 12.8101 153.422 13.2267C153.966 13.7368 154.236 14.4983 154.236 15.5098V19.6375Z" fill="#0A090C"/>
<path d="M164.81 13.8927H163.08V17.2399C163.08 18.0906 163.387 18.5159 163.996 18.5159C164.278 18.5159 164.512 18.4925 164.696 18.4443L164.736 19.6063C164.426 19.7203 164.018 19.7773 163.516 19.7773C162.895 19.7773 162.413 19.5932 162.063 19.2248C161.713 18.8565 161.539 18.2367 161.539 17.367V13.8927H160.506V12.7453H161.539V11.4824L163.078 11.0293V12.7438H164.808V13.8927H164.81Z" fill="#0A090C"/>
<path d="M173.126 19.6368H171.553V15.7195C171.553 14.4844 171.079 13.8662 170.13 13.8662C169.402 13.8662 168.904 14.2243 168.631 14.9405C168.585 15.091 168.558 15.2752 168.558 15.4915V19.6353H166.988V9.58496H168.558V13.7375H168.588C169.083 12.9819 169.792 12.6047 170.711 12.6047C171.361 12.6047 171.899 12.8123 172.327 13.2289C172.859 13.7478 173.126 14.5195 173.126 15.5398V19.6368Z" fill="#0A090C"/>
<path d="M181.707 15.8664C181.707 16.1412 181.686 16.3721 181.648 16.5607H176.936C176.957 17.2418 177.182 17.7607 177.619 18.1203C178.017 18.4418 178.532 18.6026 179.161 18.6026C179.858 18.6026 180.494 18.4945 181.067 18.2767L181.312 19.3408C180.642 19.6243 179.854 19.7661 178.941 19.7661C177.846 19.7661 176.984 19.4518 176.361 18.8233C175.734 18.1948 175.424 17.3514 175.424 16.2932C175.424 15.254 175.713 14.3887 176.296 13.6988C176.905 12.9621 177.728 12.5938 178.767 12.5938C179.783 12.5938 180.555 12.9621 181.077 13.6988C181.498 14.2834 181.707 15.0069 181.707 15.8664ZM180.208 15.4703C180.22 15.0157 180.116 14.624 179.903 14.2937C179.63 13.8683 179.215 13.6549 178.653 13.6549C178.14 13.6549 177.722 13.8625 177.403 14.279C177.142 14.6108 176.987 15.0069 176.936 15.4703H180.208Z" fill="#0A090C"/>
<path d="M80.4209 46.0494H77.0164L75.1515 40.3358H68.6692L66.8927 46.0494H63.5781L70.0004 26.5977H73.9671L80.4209 46.0494ZM74.5893 37.9387L72.9028 32.8594C72.7244 32.3405 72.39 31.1186 71.8968 29.195H71.8369C71.6405 30.0223 71.3242 31.2443 70.8894 32.8594L69.2329 37.9387H74.5893Z" fill="#0A090C"/>
<path d="M96.9375 38.8648C96.9375 41.2503 96.2764 43.1358 94.9541 44.52C93.7698 45.7522 92.2992 46.3675 90.5437 46.3675C88.6488 46.3675 87.2876 45.7039 86.4585 44.3767H86.3986V51.7654H83.2024V36.6417C83.2024 35.142 83.1619 33.6029 83.084 32.0243H85.8949L86.0733 34.2475H86.1332C87.1991 32.5724 88.8167 31.7363 90.9874 31.7363C92.6845 31.7363 94.1011 32.3897 95.2345 33.6979C96.3708 35.0075 96.9375 36.7294 96.9375 38.8648ZM93.6814 38.9788C93.6814 37.6137 93.3666 36.4882 92.7339 35.6024C92.0428 34.6786 91.1149 34.2168 89.9515 34.2168C89.163 34.2168 88.4464 34.474 87.8063 34.9812C87.1646 35.4928 86.7449 36.1608 86.5485 36.9881C86.4495 37.3739 86.4001 37.6897 86.4001 37.9381V40.2768C86.4001 41.297 86.7209 42.1579 87.3625 42.861C88.0041 43.5641 88.8377 43.9149 89.8631 43.9149C91.0669 43.9149 92.0038 43.4617 92.674 42.5584C93.3456 41.6537 93.6814 40.461 93.6814 38.9788Z" fill="#0A090C"/>
<path d="M113.483 38.8648C113.483 41.2503 112.822 43.1358 111.498 44.52C110.315 45.7522 108.845 46.3675 107.089 46.3675C105.194 46.3675 103.833 45.7039 103.005 44.3767H102.945V51.7654H99.7493V36.6417C99.7493 35.142 99.7088 33.6029 99.6309 32.0243H102.442L102.62 34.2475H102.68C103.744 32.5724 105.362 31.7363 107.534 31.7363C109.23 31.7363 110.647 32.3897 111.783 33.6979C112.915 35.0075 113.483 36.7294 113.483 38.8648ZM110.227 38.9788C110.227 37.6137 109.91 36.4882 109.278 35.6024C108.587 34.6786 107.662 34.2168 106.497 34.2168C105.707 34.2168 104.992 34.474 104.35 34.9812C103.709 35.4928 103.29 36.1608 103.094 36.9881C102.996 37.3739 102.945 37.6897 102.945 37.9381V40.2768C102.945 41.297 103.266 42.1579 103.905 42.861C104.547 43.5626 105.38 43.9149 106.408 43.9149C107.612 43.9149 108.549 43.4617 109.219 42.5584C109.891 41.6537 110.227 40.461 110.227 38.9788Z" fill="#0A090C"/>
<path d="M131.982 40.5944C131.982 42.249 131.393 43.5951 130.21 44.6344C128.911 45.7701 127.101 46.3372 124.776 46.3372C122.629 46.3372 120.908 45.9338 119.605 45.1255L120.346 42.5281C121.749 43.3554 123.289 43.7705 124.966 43.7705C126.17 43.7705 127.107 43.5045 127.78 42.9754C128.45 42.4463 128.785 41.7359 128.785 40.8502C128.785 40.0609 128.509 39.3958 127.956 38.8565C127.405 38.3171 126.487 37.8158 125.203 37.3524C121.71 36.0822 119.965 34.2215 119.965 31.7747C119.965 30.1757 120.577 28.8646 121.802 27.8443C123.022 26.8226 124.65 26.3125 126.686 26.3125C128.501 26.3125 130.009 26.6209 131.213 27.2363L130.414 29.7766C129.29 29.1803 128.019 28.8821 126.596 28.8821C125.472 28.8821 124.593 29.1525 123.963 29.6904C123.431 30.1713 123.164 30.7574 123.164 31.4517C123.164 32.2205 123.469 32.8563 124.08 33.3562C124.613 33.8181 125.58 34.318 126.983 34.8574C128.699 35.5312 129.96 36.319 130.771 37.2223C131.579 38.1227 131.982 39.2496 131.982 40.5944Z" fill="#0A090C"/>
<path d="M142.55 34.3608H139.027V41.1707C139.027 42.9028 139.648 43.7681 140.892 43.7681C141.463 43.7681 141.937 43.7198 142.312 43.6233L142.4 45.9898C141.77 46.2193 140.941 46.3347 139.915 46.3347C138.652 46.3347 137.666 45.9591 136.954 45.2092C136.245 44.458 135.888 43.198 135.888 41.4279V34.3579H133.789V32.0192H135.888V29.4511L139.027 28.5273V32.0192H142.55V34.3608Z" fill="#0A090C"/>
<path d="M158.446 38.9204C158.446 41.0763 157.813 42.8464 156.551 44.2306C155.227 45.6557 153.47 46.3661 151.28 46.3661C149.169 46.3661 147.489 45.6835 146.235 44.3183C144.982 42.9531 144.355 41.2298 144.355 39.1528C144.355 36.9793 145 35.199 146.294 33.8148C147.585 32.4292 149.327 31.7363 151.517 31.7363C153.628 31.7363 155.326 32.4189 156.608 33.7856C157.834 35.1113 158.446 36.8229 158.446 38.9204ZM155.13 39.0212C155.13 37.7277 154.846 36.6183 154.272 35.693C153.602 34.5734 152.644 34.0151 151.403 34.0151C150.118 34.0151 149.142 34.5749 148.472 35.693C147.898 36.6197 147.615 37.7467 147.615 39.0797C147.615 40.3733 147.898 41.4827 148.472 42.4064C149.163 43.5261 150.129 44.0844 151.374 44.0844C152.595 44.0844 153.553 43.5144 154.244 42.3772C154.833 41.4344 155.13 40.3133 155.13 39.0212Z" fill="#0A090C"/>
<path d="M168.833 34.7649C168.517 34.7079 168.18 34.6786 167.826 34.6786C166.702 34.6786 165.832 35.0923 165.22 35.9211C164.688 36.6519 164.421 37.5757 164.421 38.6909V46.0503H161.227L161.257 36.4414C161.257 34.8248 161.216 33.3529 161.137 32.0257H163.921L164.038 34.7093H164.126C164.463 33.787 164.996 33.0445 165.724 32.4876C166.436 31.9863 167.205 31.7363 168.034 31.7363C168.33 31.7363 168.596 31.7568 168.833 31.7933V34.7649Z" fill="#0A090C"/>
<path d="M183.128 38.3717C183.128 38.9301 183.091 39.4007 183.011 39.7851H173.423C173.46 41.1708 173.924 42.2305 174.814 42.9613C175.622 43.6147 176.667 43.9421 177.95 43.9421C179.37 43.9421 180.665 43.7214 181.83 43.2785L182.331 45.4417C180.97 46.0206 179.363 46.3085 177.508 46.3085C175.277 46.3085 173.526 45.6683 172.252 44.3894C170.981 43.1104 170.344 41.393 170.344 39.2385C170.344 37.1234 170.936 35.3622 172.122 33.9575C173.363 32.4578 175.041 31.708 177.151 31.708C179.225 31.708 180.794 32.4578 181.86 33.9575C182.704 35.1488 183.128 36.6221 183.128 38.3717ZM180.081 37.5634C180.102 36.6396 179.893 35.8416 179.46 35.1678C178.907 34.301 178.057 33.8683 176.913 33.8683C175.868 33.8683 175.018 34.2908 174.369 35.1385C173.837 35.8123 173.52 36.6206 173.423 37.5619H180.081V37.5634Z" fill="#0A090C"/>
</svg>
