<svg width="203" height="59" viewBox="0 0 203 59" fill="none" xmlns="http://www.w3.org/2000/svg">
<path d="M195.505 58.4668H8.11287C3.99212 58.4668 0.617188 55.1762 0.617188 51.1585V7.30877C0.617188 3.29104 3.99212 0.000481606 8.11287 0.000481606H195.505C199.626 0.000481606 203.001 3.29104 203.001 7.30877V51.1585C203.001 55.1762 199.626 58.4668 195.505 58.4668Z" fill="#FEFBFF"/>
<path d="M195.505 1.17163C198.975 1.17163 201.799 3.92503 201.799 7.30877V51.1585C201.799 54.5422 198.975 57.2956 195.505 57.2956H8.11287C4.64237 57.2956 1.81837 54.5422 1.81837 51.1585V7.30877C1.81837 3.92503 4.64237 1.17163 8.11287 1.17163H195.505ZM195.505 0.000481606H8.11287C3.99212 0.000481606 0.617188 3.29104 0.617188 7.30877V51.1585C0.617188 55.1762 3.99212 58.4668 8.11287 58.4668H195.505C199.626 58.4668 203.001 55.1762 203.001 51.1585V7.30877C203.001 3.29104 199.626 0.000481606 195.505 0.000481606Z" fill="#A6A6A6"/>
<path d="M16.2597 11.0225C15.8193 11.472 15.5645 12.1717 15.5645 13.078V45.4025C15.5645 46.3087 15.8193 47.0085 16.2597 47.458L16.3684 47.5566L34.9464 29.4504V29.0228L16.3684 10.9165L16.2597 11.0225Z" fill="url(#paint0_linear_453_4489)"/>
<path d="M41.1331 35.4863L34.9473 29.4479V29.0203L41.1406 22.9818L41.2792 23.0604L48.6138 27.1293C50.7069 28.284 50.7069 30.1842 48.6138 31.3462L41.2792 35.4078L41.1331 35.4863Z" fill="url(#paint1_linear_453_4489)"/>
<path d="M41.2785 35.4091L34.9465 29.2354L16.2598 47.4568C16.955 48.1694 18.0887 48.2553 19.378 47.5427L41.2785 35.4091Z" fill="url(#paint2_linear_453_4489)"/>
<path d="M41.2785 23.0607L19.378 10.9271C18.0887 10.2219 16.955 10.3077 16.2598 11.0203L34.9465 29.2344L41.2785 23.0607Z" fill="url(#paint3_linear_453_4489)"/>
<path d="M71.7016 14.9718C71.7016 16.1923 71.3268 17.1697 70.5885 17.8988C69.7396 18.763 68.634 19.1978 67.2792 19.1978C65.9843 19.1978 64.8787 18.7556 63.9717 17.8841C63.0629 16.9998 62.6094 15.9145 62.6094 14.6155C62.6094 13.3165 63.0629 12.2312 63.9717 11.3542C64.8787 10.4754 65.9843 10.0332 67.2792 10.0332C67.9238 10.0332 68.5385 10.1629 69.125 10.4041C69.7097 10.6471 70.1856 10.976 70.5304 11.3816L69.7471 12.1526C69.1456 11.4601 68.3267 11.1185 67.2792 11.1185C66.3347 11.1185 65.5158 11.44 64.8206 12.0887C64.1329 12.7391 63.7881 13.5814 63.7881 14.6155C63.7881 15.6496 64.1329 16.4992 64.8206 17.1496C65.5158 17.791 66.3347 18.1198 67.2792 18.1198C68.2817 18.1198 69.125 17.791 69.7902 17.1423C70.2287 16.713 70.478 16.121 70.5436 15.3646H67.2792V14.3086H71.6342C71.6866 14.5369 71.7016 14.758 71.7016 14.9718Z" fill="#0A090C" stroke="#0A090C" stroke-width="0.116933" stroke-miterlimit="10"/>
<path d="M78.6102 11.3095H74.5194V14.0867H78.2073V15.1427H74.5194V17.9199H78.6102V18.996H73.3613V10.2334H78.6102V11.3095Z" fill="#0A090C" stroke="#0A090C" stroke-width="0.116933" stroke-miterlimit="10"/>
<path d="M83.4856 18.996H82.3275V11.3095H79.8184V10.2334H85.9967V11.3095H83.4856V18.996Z" fill="#0A090C" stroke="#0A090C" stroke-width="0.116933" stroke-miterlimit="10"/>
<path d="M90.4688 18.996V10.2334H91.625V18.996H90.4688Z" fill="#0A090C" stroke="#0A090C" stroke-width="0.116933" stroke-miterlimit="10"/>
<path d="M96.7493 18.996H95.6006V11.3095H93.082V10.2334H99.2678V11.3095H96.7493V18.996Z" fill="#0A090C" stroke="#0A090C" stroke-width="0.116933" stroke-miterlimit="10"/>
<path d="M110.966 17.8695C110.08 18.7556 108.982 19.1978 107.672 19.1978C106.354 19.1978 105.256 18.7556 104.37 17.8695C103.485 16.9852 103.045 15.8999 103.045 14.6155C103.045 13.3311 103.485 12.2458 104.37 11.3615C105.256 10.4754 106.354 10.0332 107.672 10.0332C108.974 10.0332 110.072 10.4754 110.958 11.3688C111.85 12.2604 112.291 13.3384 112.291 14.6155C112.291 15.8999 111.85 16.9852 110.966 17.8695ZM105.226 17.135C105.893 17.791 106.705 18.1198 107.672 18.1198C108.631 18.1198 109.45 17.791 110.11 17.135C110.775 16.4791 111.112 15.6368 111.112 14.6155C111.112 13.5942 110.775 12.7519 110.11 12.096C109.45 11.44 108.631 11.1112 107.672 11.1112C106.705 11.1112 105.893 11.44 105.226 12.096C104.561 12.7519 104.224 13.5942 104.224 14.6155C104.224 15.6368 104.561 16.4791 105.226 17.135Z" fill="#0A090C" stroke="#0A090C" stroke-width="0.116933" stroke-miterlimit="10"/>
<path d="M113.916 18.996V10.2334H115.321L119.691 17.0484H119.742L119.691 15.3638V10.2334H120.848V18.996H119.641L115.065 11.8449H115.014L115.065 13.5367V18.996H113.916Z" fill="#0A090C" stroke="#0A090C" stroke-width="0.116933" stroke-miterlimit="10"/>
<path d="M102.76 31.7946C99.2386 31.7946 96.3622 34.4074 96.3622 38.0122C96.3622 41.5877 99.2386 44.2279 102.76 44.2279C106.288 44.2279 109.165 41.5877 109.165 38.0122C109.165 34.4074 106.288 31.7946 102.76 31.7946ZM102.76 41.7796C100.828 41.7796 99.1655 40.2248 99.1655 38.0122C99.1655 35.7703 100.828 34.2429 102.76 34.2429C104.692 34.2429 106.361 35.7703 106.361 38.0122C106.361 40.2248 104.692 41.7796 102.76 41.7796ZM88.8009 31.7946C85.2723 31.7946 82.4033 34.4074 82.4033 38.0122C82.4033 41.5877 85.2723 44.2279 88.8009 44.2279C92.3276 44.2279 95.1984 41.5877 95.1984 38.0122C95.1984 34.4074 92.3276 31.7946 88.8009 31.7946ZM88.8009 41.7796C86.867 41.7796 85.1992 40.2248 85.1992 38.0122C85.1992 35.7703 86.867 34.2429 88.8009 34.2429C90.7329 34.2429 92.3951 35.7703 92.3951 38.0122C92.3951 40.2248 90.7329 41.7796 88.8009 41.7796ZM72.1905 33.7003V36.3422H78.6611C78.4718 37.8185 77.9659 38.9038 77.1901 39.6602C76.2456 40.5737 74.7746 41.5877 72.1905 41.5877C68.2084 41.5877 65.0902 38.4543 65.0902 34.5718C65.0902 30.6893 68.2084 27.5558 72.1905 27.5558C74.3436 27.5558 75.9102 28.3762 77.0664 29.4395L78.9759 27.5778C77.3587 26.0722 75.2075 24.9157 72.1905 24.9157C66.7299 24.9157 62.1406 29.2477 62.1406 34.5718C62.1406 39.8959 66.7299 44.2279 72.1905 44.2279C75.1419 44.2279 77.3587 43.2851 79.1015 41.5165C80.8873 39.7753 81.4439 37.327 81.4439 35.3501C81.4439 34.7362 81.3914 34.1717 81.2977 33.7003H72.1905ZM140.113 35.7484C139.586 34.358 137.961 31.7946 134.652 31.7946C131.373 31.7946 128.642 34.3142 128.642 38.0122C128.642 41.4946 131.344 44.2279 134.967 44.2279C137.896 44.2279 139.586 42.4867 140.281 41.4726L138.107 40.0603C137.382 41.0944 136.395 41.7796 134.967 41.7796C133.548 41.7796 132.531 41.1456 131.879 39.8959L140.407 36.4555L140.113 35.7484ZM131.418 37.8185C131.344 35.4214 133.327 34.1936 134.748 34.1936C135.861 34.1936 136.805 34.7362 137.12 35.5127L131.418 37.8185ZM124.486 43.8497H127.289V25.5789H124.486V43.8497ZM119.895 33.1796H119.801C119.171 32.4524 117.97 31.7946 116.449 31.7946C113.256 31.7946 110.336 34.5279 110.336 38.0323C110.336 41.5165 113.256 44.2279 116.449 44.2279C117.97 44.2279 119.171 43.5646 119.801 42.8155H119.895V43.7072C119.895 46.0842 118.592 47.3613 116.492 47.3613C114.779 47.3613 113.717 46.1554 113.278 45.1414L110.84 46.1335C111.543 47.7815 113.404 49.8096 116.492 49.8096C119.779 49.8096 122.552 47.924 122.552 43.3363V32.1728H119.895V33.1796ZM116.689 41.7796C114.757 41.7796 113.139 40.2028 113.139 38.0323C113.139 35.8416 114.757 34.2429 116.689 34.2429C118.592 34.2429 120.093 35.8416 120.093 38.0323C120.093 40.2028 118.592 41.7796 116.689 41.7796ZM153.237 25.5789H146.533V43.8497H149.328V36.9269H153.237C156.343 36.9269 159.388 34.7362 159.388 31.252C159.388 27.7696 156.335 25.5789 153.237 25.5789ZM153.311 34.3854H149.328V28.1204H153.311C155.398 28.1204 156.59 29.8104 156.59 31.252C156.59 32.6662 155.398 34.3854 153.311 34.3854ZM170.594 31.7599C168.574 31.7599 166.473 32.6296 165.609 34.5572L168.09 35.5712C168.624 34.5572 169.606 34.2283 170.644 34.2283C172.095 34.2283 173.566 35.0779 173.588 36.5779V36.7698C173.082 36.4847 171.999 36.0627 170.667 36.0627C167.995 36.0627 165.272 37.4969 165.272 40.1736C165.272 42.6219 167.461 44.1986 169.921 44.1986C171.802 44.1986 172.841 43.371 173.493 42.4081H173.588V43.8204H176.289V36.8118C176.289 33.5724 173.808 31.7599 170.594 31.7599ZM170.256 41.7723C169.342 41.7723 168.068 41.3301 168.068 40.2248C168.068 38.8106 169.657 38.268 171.032 38.268C172.263 38.268 172.841 38.5329 173.588 38.8819C173.369 40.5737 171.876 41.7723 170.256 41.7723ZM186.127 32.1601L182.913 40.0804H182.817L179.495 32.1601H176.48L181.472 43.2285L178.623 49.3875H181.545L189.237 32.1601H186.127ZM160.924 43.8497H163.728V25.5789H160.924V43.8497Z" fill="#0A090C"/>
<defs>
<linearGradient id="paint0_linear_453_4489" x1="33.2969" y1="45.7391" x2="8.77463" y2="20.5881" gradientUnits="userSpaceOnUse">
<stop stop-color="#00A0FF"/>
<stop offset="0.0066" stop-color="#00A1FF"/>
<stop offset="0.2601" stop-color="#00BEFF"/>
<stop offset="0.5122" stop-color="#00D2FF"/>
<stop offset="0.7604" stop-color="#00DFFF"/>
<stop offset="1" stop-color="#00E3FF"/>
</linearGradient>
<linearGradient id="paint1_linear_453_4489" x1="51.3394" y1="29.232" x2="15.065" y2="29.232" gradientUnits="userSpaceOnUse">
<stop stop-color="#FFE000"/>
<stop offset="0.4087" stop-color="#FFBD00"/>
<stop offset="0.7754" stop-color="#FFA500"/>
<stop offset="1" stop-color="#FF9C00"/>
</linearGradient>
<linearGradient id="paint2_linear_453_4489" x1="37.8353" y1="25.8793" x2="4.58114" y2="-8.22752" gradientUnits="userSpaceOnUse">
<stop stop-color="#FF3A44"/>
<stop offset="1" stop-color="#C31162"/>
</linearGradient>
<linearGradient id="paint3_linear_453_4489" x1="11.5559" y1="58.21" x2="26.4054" y2="42.9799" gradientUnits="userSpaceOnUse">
<stop stop-color="#32A071"/>
<stop offset="0.0685" stop-color="#2DA771"/>
<stop offset="0.4762" stop-color="#15CF74"/>
<stop offset="0.8009" stop-color="#06E775"/>
<stop offset="1" stop-color="#00F076"/>
</linearGradient>
</defs>
</svg>
