<svg width="40" height="40" viewBox="0 0 40 40" fill="none" xmlns="http://www.w3.org/2000/svg">
<mask id="mask0_122_355" style="mask-type:alpha" maskUnits="userSpaceOnUse" x="0" y="0" width="40" height="40">
<rect width="40" height="40" rx="5" fill="#D9D9D9"/>
</mask>
<g mask="url(#mask0_122_355)">
<path d="M21.958 33.208C20.8429 34.2046 19.1571 34.2046 18.042 33.208C15.1527 30.5693 12.7637 28.2917 10.875 26.375C8.98634 24.4583 7.47934 22.743 6.35401 21.229C5.22934 19.715 4.44467 18.34 4.00001 17.104C3.55534 15.868 3.33301 14.611 3.33301 13.333C3.33301 10.8057 4.18734 8.68766 5.89601 6.97899C7.60401 5.27099 9.70801 4.41699 12.208 4.41699C13.764 4.41699 15.2087 4.77099 16.542 5.47899C18.6075 6.57678 21.4183 6.60022 23.4788 5.49312C23.5135 5.4745 23.5482 5.45613 23.583 5.43799C24.889 4.75733 26.292 4.41699 27.792 4.41699C30.292 4.41699 32.396 5.27099 34.104 6.97899C35.8127 8.68766 36.667 10.8057 36.667 13.333C36.667 14.611 36.4447 15.868 36 17.104C35.5553 18.34 34.7707 19.715 33.646 21.229C32.5207 22.743 31.0137 24.4583 29.125 26.375C27.2363 28.2917 24.8473 30.5693 21.958 33.208Z" fill="#D30059"/>
</g>
</svg>
