<svg width="36" height="39" viewBox="0 0 36 39" fill="none" xmlns="http://www.w3.org/2000/svg">
<path d="M1.25988 1.01908C0.819513 1.46854 0.564661 2.16831 0.564661 3.07453V35.3991C0.564661 36.3053 0.819513 37.0051 1.25988 37.4546L1.36857 37.5532L19.9466 19.4469V19.0194L1.36857 0.91311L1.25988 1.01908Z" fill="url(#paint0_linear_310_131)"/>
<path d="M26.1324 25.4849L19.9466 19.4464V19.0189L26.1399 12.9804L26.2786 13.0589L33.6131 17.1278C35.7063 18.2825 35.7063 20.1827 33.6131 21.3447L26.2786 25.4063L26.1324 25.4849Z" fill="url(#paint1_linear_310_131)"/>
<path d="M26.2789 25.4067L19.9469 19.233L1.26016 37.4544C1.95539 38.167 3.08911 38.2528 4.37836 37.5403L26.2789 25.4067Z" fill="url(#paint2_linear_310_131)"/>
<path d="M26.2789 13.0592L4.37836 0.925649C3.08911 0.220399 1.95539 0.306269 1.26016 1.01883L19.9469 19.2329L26.2789 13.0592Z" fill="url(#paint3_linear_310_131)"/>
<defs>
<linearGradient id="paint0_linear_310_131" x1="18.2971" y1="35.7357" x2="-6.22516" y2="10.5847" gradientUnits="userSpaceOnUse">
<stop stop-color="#00A0FF"/>
<stop offset="0.0066" stop-color="#00A1FF"/>
<stop offset="0.2601" stop-color="#00BEFF"/>
<stop offset="0.5122" stop-color="#00D2FF"/>
<stop offset="0.7604" stop-color="#00DFFF"/>
<stop offset="1" stop-color="#00E3FF"/>
</linearGradient>
<linearGradient id="paint1_linear_310_131" x1="36.3388" y1="19.2306" x2="0.0643247" y2="19.2306" gradientUnits="userSpaceOnUse">
<stop stop-color="#FFE000"/>
<stop offset="0.4087" stop-color="#FFBD00"/>
<stop offset="0.7754" stop-color="#FFA500"/>
<stop offset="1" stop-color="#FF9C00"/>
</linearGradient>
<linearGradient id="paint2_linear_310_131" x1="22.8357" y1="15.8769" x2="-10.4185" y2="-18.23" gradientUnits="userSpaceOnUse">
<stop stop-color="#FF3A44"/>
<stop offset="1" stop-color="#C31162"/>
</linearGradient>
<linearGradient id="paint3_linear_310_131" x1="-3.44368" y1="48.2085" x2="11.4058" y2="32.9784" gradientUnits="userSpaceOnUse">
<stop stop-color="#32A071"/>
<stop offset="0.0685" stop-color="#2DA771"/>
<stop offset="0.4762" stop-color="#15CF74"/>
<stop offset="0.8009" stop-color="#06E775"/>
<stop offset="1" stop-color="#00F076"/>
</linearGradient>
</defs>
</svg>
