<svg width="13" height="18" viewBox="0 0 13 18" fill="none" xmlns="http://www.w3.org/2000/svg">
<path d="M6.62339 8.34156C6.54665 8.33389 6.45457 8.33389 6.37015 8.34156C5.48933 8.31166 4.65474 7.94009 4.04311 7.30554C3.43149 6.671 3.09086 5.82331 3.09336 4.94198C3.09336 3.06186 4.61281 1.53473 6.50061 1.53473C6.94755 1.52667 7.39171 1.60672 7.80771 1.77031C8.22372 1.9339 8.60343 2.17782 8.92517 2.48816C9.2469 2.7985 9.50437 3.16916 9.68285 3.579C9.86134 3.98883 9.95735 4.42981 9.96541 4.87676C9.97348 5.3237 9.89343 5.76785 9.72984 6.18386C9.56625 6.59987 9.32232 6.97958 9.01199 7.30131C8.70165 7.62305 8.33099 7.88051 7.92115 8.059C7.51131 8.23748 7.07034 8.3335 6.62339 8.34156ZM2.7864 11.1733C0.929294 12.4165 0.929294 14.4424 2.7864 15.6779C4.89675 17.0899 8.35771 17.0899 10.4681 15.6779C12.3252 14.4347 12.3252 12.4088 10.4681 11.1733C8.36539 9.76892 4.90442 9.76892 2.7864 11.1733Z" stroke="#484349" stroke-width="1.64153" stroke-linecap="round" stroke-linejoin="round"/>
</svg>
