<svg width="162" height="162" viewBox="0 0 162 162" fill="none" xmlns="http://www.w3.org/2000/svg">
<path opacity="0.5" d="M159 81.5C159 124.302 124.302 159 81.5 159C38.6979 159 4 124.302 4 81.5C4 38.6979 38.6979 4 81.5 4C124.302 4 159 38.6979 159 81.5ZM26.228 81.5C26.228 112.026 50.9741 136.772 81.5 136.772C112.026 136.772 136.772 112.026 136.772 81.5C136.772 50.9741 112.026 26.228 81.5 26.228C50.9741 26.228 26.228 50.9741 26.228 81.5Z" fill="#151319"/>
<path d="M162 81C162 125.735 125.735 162 81 162C36.2649 162 0 125.735 0 81C0 36.2649 36.2649 0 81 0C125.735 0 162 36.2649 162 81ZM31.4123 81C31.4123 108.387 53.6135 130.588 81 130.588C108.387 130.588 130.588 108.387 130.588 81C130.588 53.6135 108.387 31.4123 81 31.4123C53.6135 31.4123 31.4123 53.6135 31.4123 81Z" fill="#9400D3"/>
<g filter="url(#filter0_d_355_1339)">
<path d="M49.75 76.275C50.2333 76.075 50.7333 75.85 51.25 75.6C51.7833 75.3333 52.3 75.05 52.8 74.75C53.3 74.4333 53.775 74.1083 54.225 73.775C54.6917 73.425 55.1083 73.0583 55.475 72.675H58.075V90H54.35V77.525C53.85 77.8583 53.2917 78.1667 52.675 78.45C52.0583 78.7167 51.4583 78.95 50.875 79.15L49.75 76.275ZM75.559 81.3C75.559 84.2167 75.0007 86.4583 73.884 88.025C72.784 89.575 71.259 90.35 69.309 90.35C67.359 90.35 65.8257 89.575 64.709 88.025C63.609 86.4583 63.059 84.2167 63.059 81.3C63.059 79.85 63.2007 78.5667 63.484 77.45C63.784 76.3333 64.209 75.3917 64.759 74.625C65.309 73.8583 65.9673 73.275 66.734 72.875C67.5007 72.475 68.359 72.275 69.309 72.275C71.259 72.275 72.784 73.0583 73.884 74.625C75.0007 76.175 75.559 78.4 75.559 81.3ZM71.759 81.3C71.759 80.4333 71.7173 79.65 71.634 78.95C71.5507 78.2333 71.4173 77.6167 71.234 77.1C71.0507 76.5833 70.8007 76.1833 70.484 75.9C70.1673 75.6167 69.7757 75.475 69.309 75.475C68.8423 75.475 68.4507 75.6167 68.134 75.9C67.834 76.1833 67.584 76.5833 67.384 77.1C67.2007 77.6167 67.0673 78.2333 66.984 78.95C66.9007 79.65 66.859 80.4333 66.859 81.3C66.859 82.1667 66.9007 82.9583 66.984 83.675C67.0673 84.3917 67.2007 85.0083 67.384 85.525C67.584 86.0417 67.834 86.4417 68.134 86.725C68.4507 87.0083 68.8423 87.15 69.309 87.15C69.7757 87.15 70.1673 87.0083 70.484 86.725C70.8007 86.4417 71.0507 86.0417 71.234 85.525C71.4173 85.0083 71.5507 84.3917 71.634 83.675C71.7173 82.9583 71.759 82.1667 71.759 81.3ZM89.768 81.3C89.768 84.2167 89.2096 86.4583 88.093 88.025C86.993 89.575 85.468 90.35 83.518 90.35C81.568 90.35 80.0346 89.575 78.918 88.025C77.818 86.4583 77.268 84.2167 77.268 81.3C77.268 79.85 77.4096 78.5667 77.693 77.45C77.993 76.3333 78.418 75.3917 78.968 74.625C79.518 73.8583 80.1763 73.275 80.943 72.875C81.7096 72.475 82.568 72.275 83.518 72.275C85.468 72.275 86.993 73.0583 88.093 74.625C89.2096 76.175 89.768 78.4 89.768 81.3ZM85.968 81.3C85.968 80.4333 85.9263 79.65 85.843 78.95C85.7596 78.2333 85.6263 77.6167 85.443 77.1C85.2596 76.5833 85.0096 76.1833 84.693 75.9C84.3763 75.6167 83.9846 75.475 83.518 75.475C83.0513 75.475 82.6596 75.6167 82.343 75.9C82.043 76.1833 81.793 76.5833 81.593 77.1C81.4096 77.6167 81.2763 78.2333 81.193 78.95C81.1096 79.65 81.068 80.4333 81.068 81.3C81.068 82.1667 81.1096 82.9583 81.193 83.675C81.2763 84.3917 81.4096 85.0083 81.593 85.525C81.793 86.0417 82.043 86.4417 82.343 86.725C82.6596 87.0083 83.0513 87.15 83.518 87.15C83.9846 87.15 84.3763 87.0083 84.693 86.725C85.0096 86.4417 85.2596 86.0417 85.443 85.525C85.6263 85.0083 85.7596 84.3917 85.843 83.675C85.9263 82.9583 85.968 82.1667 85.968 81.3ZM100.352 77.125C100.352 78.6917 99.952 79.8917 99.152 80.725C98.352 81.5583 97.277 81.975 95.927 81.975C94.577 81.975 93.502 81.5583 92.702 80.725C91.902 79.8917 91.502 78.6917 91.502 77.125C91.502 75.5583 91.902 74.3583 92.702 73.525C93.502 72.6917 94.577 72.275 95.927 72.275C97.277 72.275 98.352 72.6917 99.152 73.525C99.952 74.3583 100.352 75.5583 100.352 77.125ZM97.527 77.125C97.527 76.275 97.377 75.6583 97.077 75.275C96.777 74.8917 96.3936 74.7 95.927 74.7C95.4436 74.7 95.052 74.8917 94.752 75.275C94.4686 75.6583 94.327 76.275 94.327 77.125C94.327 77.975 94.4686 78.6 94.752 79C95.052 79.3833 95.4436 79.575 95.927 79.575C96.3936 79.575 96.777 79.3833 97.077 79C97.377 78.6 97.527 77.975 97.527 77.125ZM105.227 72.675H108.702L98.927 90H95.452L105.227 72.675ZM112.702 85.55C112.702 87.1167 112.302 88.3167 111.502 89.15C110.702 89.9833 109.627 90.4 108.277 90.4C106.927 90.4 105.852 89.9833 105.052 89.15C104.252 88.3167 103.852 87.1167 103.852 85.55C103.852 83.9833 104.252 82.7833 105.052 81.95C105.852 81.1167 106.927 80.7 108.277 80.7C109.627 80.7 110.702 81.1167 111.502 81.95C112.302 82.7833 112.702 83.9833 112.702 85.55ZM109.877 85.55C109.877 84.7 109.727 84.0833 109.427 83.7C109.127 83.3167 108.744 83.125 108.277 83.125C107.794 83.125 107.402 83.3167 107.102 83.7C106.819 84.0833 106.677 84.7 106.677 85.55C106.677 86.4 106.819 87.025 107.102 87.425C107.402 87.8083 107.794 88 108.277 88C108.744 88 109.127 87.8083 109.427 87.425C109.727 87.025 109.877 86.4 109.877 85.55Z" fill="#9400D3"/>
</g>
<defs>
<filter id="filter0_d_355_1339" x="47.75" y="72.275" width="66.9519" height="22.125" filterUnits="userSpaceOnUse" color-interpolation-filters="sRGB">
<feFlood flood-opacity="0" result="BackgroundImageFix"/>
<feColorMatrix in="SourceAlpha" type="matrix" values="0 0 0 0 0 0 0 0 0 0 0 0 0 0 0 0 0 0 127 0" result="hardAlpha"/>
<feOffset dy="2"/>
<feGaussianBlur stdDeviation="1"/>
<feComposite in2="hardAlpha" operator="out"/>
<feColorMatrix type="matrix" values="0 0 0 0 0 0 0 0 0 0 0 0 0 0 0 0 0 0 0.3 0"/>
<feBlend mode="normal" in2="BackgroundImageFix" result="effect1_dropShadow_355_1339"/>
<feBlend mode="normal" in="SourceGraphic" in2="effect1_dropShadow_355_1339" result="shape"/>
</filter>
</defs>
</svg>
