<svg width="162" height="162" viewBox="0 0 162 162" fill="none" xmlns="http://www.w3.org/2000/svg">
<path opacity="0.5" d="M159 81.5C159 124.302 124.302 159 81.5 159C38.6979 159 4 124.302 4 81.5C4 38.6979 38.6979 4 81.5 4C124.302 4 159 38.6979 159 81.5ZM26.228 81.5C26.228 112.026 50.9741 136.772 81.5 136.772C112.026 136.772 136.772 112.026 136.772 81.5C136.772 50.9741 112.026 26.228 81.5 26.228C50.9741 26.228 26.228 50.9741 26.228 81.5Z" fill="#151319"/>
<path d="M87.0208 0.224073C75.8991 -0.604896 64.7261 0.871733 54.2017 4.56146C43.6773 8.25118 34.0282 14.0745 25.8588 21.6666C17.6895 29.2587 11.176 38.456 6.72637 48.6824C2.27672 58.9087 -0.0131994 69.9438 5.72237e-05 81.0963C0.0133138 92.2488 2.32946 103.278 6.80341 113.494C11.2774 123.71 17.8127 132.892 26 140.464C34.1874 148.037 43.8503 153.837 54.3835 157.502C64.9167 161.167 76.0931 162.617 87.2128 161.761L84.8034 130.442C77.9961 130.965 71.1539 130.078 64.7056 127.834C58.2572 125.591 52.3416 122.04 47.3294 117.404C42.3172 112.768 38.3163 107.147 35.5773 100.893C32.8384 94.6386 31.4205 87.8864 31.4124 81.0589C31.4043 74.2315 32.8061 67.4759 35.5302 61.2154C38.2542 54.9549 42.2417 49.3243 47.2429 44.6765C52.2441 40.0286 58.1513 36.4637 64.5943 34.2048C71.0372 31.946 77.8773 31.042 84.6859 31.5495L87.0208 0.224073Z" fill="#9400D3"/>
<g filter="url(#filter0_d_355_1259)">
<path d="M68 85.9C68 85.4167 67.8917 84.9917 67.675 84.625C67.4583 84.2417 67.0833 83.925 66.55 83.675C66.0167 83.425 65.3 83.2333 64.4 83.1C63.5 82.9667 62.3667 82.9 61 82.9C61.1833 81.35 61.3333 79.775 61.45 78.175C61.5667 76.575 61.6583 75.075 61.725 73.675H71.1V76.8H64.85C64.8167 77.4 64.775 77.9833 64.725 78.55C64.6917 79.1 64.65 79.5833 64.6 80C67.0333 80.1667 68.825 80.7417 69.975 81.725C71.1417 82.6917 71.725 84.0417 71.725 85.775C71.725 86.575 71.5833 87.3167 71.3 88C71.0167 88.6833 70.5917 89.275 70.025 89.775C69.4583 90.275 68.7417 90.6667 67.875 90.95C67.025 91.2333 66.025 91.375 64.875 91.375C64.425 91.375 63.95 91.3417 63.45 91.275C62.9667 91.225 62.4917 91.15 62.025 91.05C61.575 90.9667 61.1667 90.875 60.8 90.775C60.4333 90.675 60.15 90.575 59.95 90.475L60.625 87.4C61.0417 87.5833 61.5917 87.7667 62.275 87.95C62.9583 88.1167 63.775 88.2 64.725 88.2C65.875 88.2 66.7083 87.975 67.225 87.525C67.7417 87.0583 68 86.5167 68 85.9ZM86.559 82.3C86.559 85.2167 86.0007 87.4583 84.884 89.025C83.784 90.575 82.259 91.35 80.309 91.35C78.359 91.35 76.8257 90.575 75.709 89.025C74.609 87.4583 74.059 85.2167 74.059 82.3C74.059 80.85 74.2007 79.5667 74.484 78.45C74.784 77.3333 75.209 76.3917 75.759 75.625C76.309 74.8583 76.9673 74.275 77.734 73.875C78.5007 73.475 79.359 73.275 80.309 73.275C82.259 73.275 83.784 74.0583 84.884 75.625C86.0007 77.175 86.559 79.4 86.559 82.3ZM82.759 82.3C82.759 81.4333 82.7173 80.65 82.634 79.95C82.5507 79.2333 82.4173 78.6167 82.234 78.1C82.0507 77.5833 81.8007 77.1833 81.484 76.9C81.1673 76.6167 80.7757 76.475 80.309 76.475C79.8423 76.475 79.4507 76.6167 79.134 76.9C78.834 77.1833 78.584 77.5833 78.384 78.1C78.2007 78.6167 78.0673 79.2333 77.984 79.95C77.9007 80.65 77.859 81.4333 77.859 82.3C77.859 83.1667 77.9007 83.9583 77.984 84.675C78.0673 85.3917 78.2007 86.0083 78.384 86.525C78.584 87.0417 78.834 87.4417 79.134 87.725C79.4507 88.0083 79.8423 88.15 80.309 88.15C80.7757 88.15 81.1673 88.0083 81.484 87.725C81.8007 87.4417 82.0507 87.0417 82.234 86.525C82.4173 86.0083 82.5507 85.3917 82.634 84.675C82.7173 83.9583 82.759 83.1667 82.759 82.3ZM97.143 78.125C97.143 79.6917 96.743 80.8917 95.943 81.725C95.143 82.5583 94.068 82.975 92.718 82.975C91.368 82.975 90.293 82.5583 89.493 81.725C88.693 80.8917 88.293 79.6917 88.293 78.125C88.293 76.5583 88.693 75.3583 89.493 74.525C90.293 73.6917 91.368 73.275 92.718 73.275C94.068 73.275 95.143 73.6917 95.943 74.525C96.743 75.3583 97.143 76.5583 97.143 78.125ZM94.318 78.125C94.318 77.275 94.168 76.6583 93.868 76.275C93.568 75.8917 93.1846 75.7 92.718 75.7C92.2346 75.7 91.843 75.8917 91.543 76.275C91.2596 76.6583 91.118 77.275 91.118 78.125C91.118 78.975 91.2596 79.6 91.543 80C91.843 80.3833 92.2346 80.575 92.718 80.575C93.1846 80.575 93.568 80.3833 93.868 80C94.168 79.6 94.318 78.975 94.318 78.125ZM102.018 73.675H105.493L95.718 91H92.243L102.018 73.675ZM109.493 86.55C109.493 88.1167 109.093 89.3167 108.293 90.15C107.493 90.9833 106.418 91.4 105.068 91.4C103.718 91.4 102.643 90.9833 101.843 90.15C101.043 89.3167 100.643 88.1167 100.643 86.55C100.643 84.9833 101.043 83.7833 101.843 82.95C102.643 82.1167 103.718 81.7 105.068 81.7C106.418 81.7 107.493 82.1167 108.293 82.95C109.093 83.7833 109.493 84.9833 109.493 86.55ZM106.668 86.55C106.668 85.7 106.518 85.0833 106.218 84.7C105.918 84.3167 105.535 84.125 105.068 84.125C104.585 84.125 104.193 84.3167 103.893 84.7C103.61 85.0833 103.468 85.7 103.468 86.55C103.468 87.4 103.61 88.025 103.893 88.425C104.193 88.8083 104.585 89 105.068 89C105.535 89 105.918 88.8083 106.218 88.425C106.518 88.025 106.668 87.4 106.668 86.55Z" fill="#6B0099"/>
</g>
<defs>
<filter id="filter0_d_355_1259" x="57.95" y="73.275" width="53.543" height="22.125" filterUnits="userSpaceOnUse" color-interpolation-filters="sRGB">
<feFlood flood-opacity="0" result="BackgroundImageFix"/>
<feColorMatrix in="SourceAlpha" type="matrix" values="0 0 0 0 0 0 0 0 0 0 0 0 0 0 0 0 0 0 127 0" result="hardAlpha"/>
<feOffset dy="2"/>
<feGaussianBlur stdDeviation="1"/>
<feComposite in2="hardAlpha" operator="out"/>
<feColorMatrix type="matrix" values="0 0 0 0 0 0 0 0 0 0 0 0 0 0 0 0 0 0 0.3 0"/>
<feBlend mode="normal" in2="BackgroundImageFix" result="effect1_dropShadow_355_1259"/>
<feBlend mode="normal" in="SourceGraphic" in2="effect1_dropShadow_355_1259" result="shape"/>
</filter>
</defs>
</svg>
