<svg width="24" height="24" viewBox="0 0 24 24" fill="none" xmlns="http://www.w3.org/2000/svg">
<path d="M20.25 8.9999C20.2513 7.60947 19.9012 6.24127 19.2321 5.02239C18.563 3.80352 17.5968 2.77351 16.4231 2.02806C15.2493 1.28261 13.9063 0.845905 12.5186 0.758504C11.1309 0.671103 9.74365 0.935847 8.48568 1.52814C7.22771 2.12043 6.13985 3.02106 5.32315 4.14636C4.50644 5.27166 3.9874 6.58511 3.81423 7.96472C3.64107 9.34432 3.81939 10.7453 4.33265 12.0375C4.8459 13.3298 5.67744 14.4713 6.75 15.3561V22.4999C6.74924 22.6279 6.78165 22.7539 6.84409 22.8656C6.90652 22.9773 6.99685 23.071 7.10625 23.1374C7.21477 23.2056 7.33897 23.2449 7.46699 23.2515C7.595 23.258 7.72257 23.2317 7.8375 23.1749L12 21.0843L16.1625 23.1749C16.2689 23.2219 16.3837 23.2474 16.5 23.2499C16.6989 23.2499 16.8897 23.1709 17.0303 23.0302C17.171 22.8896 17.25 22.6988 17.25 22.4999V15.3561C18.1883 14.5838 18.9439 13.6133 19.4626 12.5143C19.9812 11.4153 20.2502 10.2151 20.25 8.9999V8.9999ZM5.25 8.9999C5.25 7.66487 5.64588 6.35983 6.38758 5.2498C7.12928 4.13977 8.18348 3.2746 9.41689 2.76371C10.6503 2.25282 12.0075 2.11915 13.3169 2.3796C14.6262 2.64005 15.829 3.28292 16.773 4.22693C17.717 5.17093 18.3599 6.37367 18.6203 7.68304C18.8808 8.99241 18.7471 10.3496 18.2362 11.583C17.7253 12.8164 16.8601 13.8706 15.7501 14.6123C14.6401 15.354 13.335 15.7499 12 15.7499C10.2105 15.7474 8.4951 15.0355 7.22977 13.7701C5.96443 12.5048 5.25248 10.7893 5.25 8.9999V8.9999ZM15.75 21.2905L12.3375 19.5749C12.2322 19.5242 12.1169 19.4979 12 19.4979C11.8831 19.4979 11.7678 19.5242 11.6625 19.5749L8.25 21.2905V16.3499C9.41143 16.9417 10.6965 17.2503 12 17.2503C13.3035 17.2503 14.5886 16.9417 15.75 16.3499V21.2905ZM12 14.2499C13.0384 14.2499 14.0534 13.942 14.9167 13.3651C15.7801 12.7882 16.453 11.9683 16.8504 11.009C17.2477 10.0497 17.3517 8.99407 17.1491 7.97567C16.9466 6.95727 16.4465 6.02181 15.7123 5.28759C14.9781 4.55336 14.0426 4.05335 13.0242 3.85077C12.0058 3.6482 10.9502 3.75217 9.99091 4.14953C9.0316 4.54689 8.21166 5.2198 7.63478 6.08315C7.05791 6.94651 6.75 7.96155 6.75 8.9999C6.75 10.3923 7.30312 11.7276 8.28769 12.7122C9.27225 13.6968 10.6076 14.2499 12 14.2499ZM12 5.2499C12.7417 5.2499 13.4667 5.46983 14.0834 5.88189C14.7001 6.29394 15.1807 6.87961 15.4645 7.56484C15.7484 8.25006 15.8226 9.00406 15.6779 9.73149C15.5333 10.4589 15.1761 11.1271 14.6516 11.6515C14.1272 12.176 13.459 12.5331 12.7316 12.6778C12.0042 12.8225 11.2502 12.7483 10.5649 12.4644C9.87971 12.1806 9.29404 11.7 8.88199 11.0833C8.46993 10.4666 8.25 9.74158 8.25 8.9999C8.25247 8.0061 8.64836 7.05371 9.35108 6.35098C10.0538 5.64826 11.0062 5.25237 12 5.2499V5.2499Z" fill="#9400D3"/>
</svg>
