<svg width="22" height="22" viewBox="0 0 22 22" fill="none" xmlns="http://www.w3.org/2000/svg">
<path d="M7.18762 4.36699L4.79178 5.70866L6.13345 3.31283L4.79178 0.916992L7.18762 2.25866L9.58345 0.916992L8.24178 3.31283L9.58345 5.70866L7.18762 4.36699ZM18.6876 13.7587L21.0835 12.417L19.7418 14.8128L21.0835 17.2087L18.6876 15.867L16.2918 17.2087L17.6334 14.8128L16.2918 12.417L18.6876 13.7587ZM21.0835 0.916992L19.7418 3.31283L21.0835 5.70866L18.6876 4.36699L16.2918 5.70866L17.6334 3.31283L16.2918 0.916992L18.6876 2.25866L21.0835 0.916992ZM12.7843 11.2478L15.1226 8.90949L13.091 6.87783L10.7526 9.21616L12.7843 11.2478ZM13.7714 5.98658L16.0139 8.22908C16.3876 8.58366 16.3876 9.20658 16.0139 9.58033L4.83012 20.7641C4.45637 21.1378 3.83345 21.1378 3.47887 20.7641L1.23637 18.5216C0.862617 18.167 0.862617 17.5441 1.23637 17.1703L12.4201 5.98658C12.7939 5.61283 13.4168 5.61283 13.7714 5.98658Z" fill="#FEFBFF"/>
</svg>
