<svg width="42" height="25" viewBox="0 0 42 25" fill="none" xmlns="http://www.w3.org/2000/svg">
<path d="M21.3059 1.13965L33.9814 11.4265C34.3901 11.7582 34.3901 12.3819 33.9814 12.7136L21.3059 23" stroke="#ffb17a" stroke-width="2.07207" stroke-linecap="round"/>
<path d="M21.3064 1.13965L8.44225 11.3725C8.02633 11.7033 8.02488 12.3346 8.43926 12.6673L21.3064 23" stroke="#ffb17a" stroke-width="2.07207" stroke-linecap="round"/>
<path d="M14.6757 1.03613L1.81158 11.2689C1.39566 11.5998 1.3942 12.2311 1.80859 12.5638L14.6757 22.8965" stroke="#ffb17a" stroke-width="2.07207" stroke-linecap="round"/>
<path d="M27.7297 22.8965L40.5938 12.6637C41.0097 12.3328 41.0112 11.7016 40.5968 11.3688L27.7297 1.03612" stroke="#ffb17a" stroke-width="2.07207" stroke-linecap="round"/>
<path d="M16.5716 13.7991C16.4879 13.8518 16.4114 13.8972 16.3421 13.9354C16.2727 13.9713 16.2034 14 16.1341 14.0215C16.0647 14.0454 15.993 14.0622 15.9189 14.0717C15.8447 14.0837 15.7634 14.0897 15.675 14.0897C15.4526 14.0897 15.2529 14.0598 15.076 14C14.9014 13.9378 14.7532 13.8541 14.6313 13.7489C14.5117 13.6413 14.4196 13.5158 14.3551 13.3723C14.2905 13.2265 14.2582 13.0687 14.2582 12.8989C14.2582 12.7267 14.2905 12.5677 14.3551 12.4219C14.422 12.276 14.5177 12.1517 14.642 12.0489C14.7663 11.9437 14.9182 11.8624 15.0975 11.805C15.2792 11.7452 15.4861 11.7153 15.718 11.7153C15.8878 11.7153 16.042 11.7249 16.1807 11.744C16.3218 11.7607 16.4521 11.7823 16.5716 11.8086V11.6938C16.5716 11.6005 16.5537 11.5204 16.5178 11.4535C16.482 11.3841 16.4318 11.3279 16.3672 11.2849C16.3026 11.2395 16.2249 11.2072 16.1341 11.1881C16.0432 11.1665 15.944 11.1558 15.8364 11.1558C15.6116 11.1558 15.4131 11.1785 15.241 11.2239C15.0712 11.267 14.9074 11.3303 14.7496 11.414L14.4053 10.7182C14.6492 10.5508 14.9038 10.4229 15.1692 10.3344C15.4371 10.246 15.7204 10.2017 16.0193 10.2017C16.2512 10.2017 16.4652 10.228 16.6613 10.2806C16.8598 10.3309 17.0295 10.4145 17.1706 10.5317C17.3117 10.6465 17.4217 10.7971 17.5006 10.9836C17.5819 11.1701 17.6225 11.3973 17.6225 11.6651V13.0173H18.1211V14H16.5716V13.7991ZM15.7539 13.2432C15.9236 13.2432 16.0779 13.2157 16.2166 13.1607C16.3552 13.1057 16.4736 13.0388 16.5716 12.9599V12.4864H15.7108C15.6558 12.4864 15.602 12.4948 15.5494 12.5115C15.4968 12.5283 15.449 12.5522 15.406 12.5833C15.3653 12.6144 15.3318 12.6526 15.3055 12.698C15.2816 12.7435 15.2697 12.7961 15.2697 12.8559C15.2697 12.9658 15.3091 13.0579 15.388 13.132C15.4693 13.2062 15.5913 13.2432 15.7539 13.2432ZM21.0765 8.41917H22.7012V13.0173H23.4257V14H21.5965V13.8565C21.4674 13.9235 21.3347 13.9761 21.1984 14.0143C21.0645 14.0526 20.9282 14.0717 20.7895 14.0717C20.505 14.0717 20.2432 14.0215 20.0041 13.9211C19.7673 13.8183 19.5629 13.6784 19.3907 13.5015C19.221 13.3245 19.0883 13.1177 18.9926 12.881C18.897 12.6419 18.8492 12.386 18.8492 12.1134C18.8492 11.8408 18.8958 11.5874 18.989 11.3531C19.0847 11.1163 19.2162 10.9107 19.3836 10.7361C19.5533 10.5616 19.7554 10.4241 19.9897 10.3237C20.2264 10.2233 20.4859 10.173 20.768 10.173C20.9234 10.173 21.0693 10.1886 21.2056 10.2197C21.3419 10.2484 21.4722 10.2902 21.5965 10.3452V9.40191H21.0765V8.41917ZM20.8505 13.0818C21.0083 13.077 21.1506 13.0364 21.2773 12.9599C21.4064 12.8834 21.5128 12.7829 21.5965 12.6586V11.5647C21.5128 11.4379 21.404 11.3399 21.2701 11.2706C21.1386 11.1988 20.9988 11.1642 20.8505 11.1665C20.7262 11.1642 20.609 11.1857 20.499 11.2311C20.3914 11.2765 20.2958 11.3411 20.2121 11.4248C20.1308 11.5085 20.0662 11.6089 20.0184 11.7261C19.9706 11.8432 19.9467 11.9759 19.9467 12.1242C19.9467 12.27 19.9706 12.4027 20.0184 12.5223C20.0662 12.6395 20.1308 12.7399 20.2121 12.8236C20.2958 12.9049 20.3914 12.967 20.499 13.0101C20.609 13.0531 20.7262 13.077 20.8505 13.0818ZM26.1839 13.7991C26.1002 13.8518 26.0237 13.8972 25.9543 13.9354C25.885 13.9713 25.8156 14 25.7463 14.0215C25.6769 14.0454 25.6052 14.0622 25.5311 14.0717C25.457 14.0837 25.3757 14.0897 25.2872 14.0897C25.0648 14.0897 24.8652 14.0598 24.6882 14C24.5137 13.9378 24.3654 13.8541 24.2435 13.7489C24.1239 13.6413 24.0319 13.5158 23.9673 13.3723C23.9027 13.2265 23.8705 13.0687 23.8705 12.8989C23.8705 12.7267 23.9027 12.5677 23.9673 12.4219C24.0343 12.276 24.1299 12.1517 24.2542 12.0489C24.3786 11.9437 24.5304 11.8624 24.7097 11.805C24.8915 11.7452 25.0983 11.7153 25.3302 11.7153C25.5 11.7153 25.6542 11.7249 25.7929 11.744C25.934 11.7607 26.0643 11.7823 26.1839 11.8086V11.6938C26.1839 11.6005 26.1659 11.5204 26.1301 11.4535C26.0942 11.3841 26.044 11.3279 25.9794 11.2849C25.9149 11.2395 25.8372 11.2072 25.7463 11.1881C25.6554 11.1665 25.5562 11.1558 25.4486 11.1558C25.2238 11.1558 25.0254 11.1785 24.8532 11.2239C24.6834 11.267 24.5197 11.3303 24.3618 11.414L24.0175 10.7182C24.2614 10.5508 24.5161 10.4229 24.7815 10.3344C25.0493 10.246 25.3326 10.2017 25.6315 10.2017C25.8635 10.2017 26.0775 10.228 26.2735 10.2806C26.472 10.3309 26.6418 10.4145 26.7828 10.5317C26.9239 10.6465 27.0339 10.7971 27.1128 10.9836C27.1941 11.1701 27.2347 11.3973 27.2347 11.6651V13.0173H27.7333V14H26.1839V13.7991ZM25.3661 13.2432C25.5359 13.2432 25.6901 13.2157 25.8288 13.1607C25.9675 13.1057 26.0858 13.0388 26.1839 12.9599V12.4864H25.3231C25.2681 12.4864 25.2143 12.4948 25.1617 12.5115C25.1091 12.5283 25.0612 12.5522 25.0182 12.5833C24.9775 12.6144 24.9441 12.6526 24.9178 12.698C24.8939 12.7435 24.8819 12.7961 24.8819 12.8559C24.8819 12.9658 24.9214 13.0579 25.0003 13.132C25.0816 13.2062 25.2035 13.2432 25.3661 13.2432Z" fill="#ffb17a"/>
<path d="M16.5716 13.7991H16.7692V13.4416L16.4665 13.6319L16.5716 13.7991ZM16.3421 13.9354L16.4329 14.111L16.4375 14.1084L16.3421 13.9354ZM16.1341 14.0215L16.0755 13.8327L16.0696 13.8347L16.1341 14.0215ZM15.9189 14.0717L15.8936 13.8757L15.8874 13.8767L15.9189 14.0717ZM15.076 14L15.0097 14.1862L15.0128 14.1872L15.076 14ZM14.6313 13.7489L14.499 13.8958L14.5022 13.8985L14.6313 13.7489ZM14.3551 13.3723L14.1744 13.4523L14.1749 13.4534L14.3551 13.3723ZM14.3551 12.4219L14.1755 12.3394L14.1744 12.3419L14.3551 12.4219ZM14.642 12.0489L14.7679 12.2011L14.7696 12.1997L14.642 12.0489ZM15.0975 11.805L15.1577 11.9932L15.1593 11.9927L15.0975 11.805ZM16.1807 11.744L16.1537 11.9398L16.1574 11.9402L16.1807 11.744ZM16.5716 11.8086L16.5292 12.0015L16.7692 12.0543V11.8086H16.5716ZM16.5178 11.4535L16.3423 11.5443L16.3437 11.5468L16.5178 11.4535ZM16.3672 11.2849L16.2534 11.4465L16.2576 11.4493L16.3672 11.2849ZM16.1341 11.1881L16.0885 11.3804L16.0934 11.3814L16.1341 11.1881ZM15.241 11.2239L15.2895 11.4155L15.2914 11.415L15.241 11.2239ZM14.7496 11.414L14.5725 11.5017L14.6626 11.6838L14.8422 11.5886L14.7496 11.414ZM14.4053 10.7182L14.2935 10.5553L14.1522 10.6523L14.2282 10.8058L14.4053 10.7182ZM15.1692 10.3344L15.1073 10.1468L15.1068 10.147L15.1692 10.3344ZM16.6613 10.2806L16.6101 10.4715L16.6128 10.4722L16.6613 10.2806ZM17.1706 10.5317L17.0444 10.6837L17.0459 10.685L17.1706 10.5317ZM17.5006 10.9836L17.3186 11.0606L17.3194 11.0626L17.5006 10.9836ZM17.6225 13.0173H17.4249V13.2149H17.6225V13.0173ZM18.1211 13.0173H18.3187V12.8197H18.1211V13.0173ZM18.1211 14V14.1976H18.3187V14H18.1211ZM16.5716 14H16.374V14.1976H16.5716V14ZM16.5716 12.9599L16.6955 13.1138L16.7692 13.0545V12.9599H16.5716ZM16.5716 12.4864H16.7692V12.2888H16.5716V12.4864ZM15.406 12.5833L15.2902 12.423L15.2859 12.4263L15.406 12.5833ZM15.3055 12.698L15.1344 12.599L15.1307 12.606L15.3055 12.698ZM15.388 13.132L15.2527 13.2761L15.2549 13.278L15.388 13.132ZM16.4665 13.6319C16.3852 13.6829 16.312 13.7264 16.2466 13.7624L16.4375 14.1084C16.5109 14.068 16.5907 14.0206 16.6768 13.9664L16.4665 13.6319ZM16.2513 13.7599C16.1915 13.7909 16.1329 13.815 16.0755 13.8328L16.1926 14.2102C16.2739 14.185 16.354 14.1518 16.4329 14.1109L16.2513 13.7599ZM16.0696 13.8347C16.0132 13.8542 15.9546 13.8679 15.8936 13.8758L15.9441 14.2677C16.0313 14.2565 16.1162 14.2367 16.1985 14.2083L16.0696 13.8347ZM15.8874 13.8767C15.8253 13.8867 15.7547 13.8921 15.675 13.8921V14.2873C15.7722 14.2873 15.8642 14.2807 15.9503 14.2668L15.8874 13.8767ZM15.675 13.8921C15.4701 13.8921 15.2923 13.8645 15.1392 13.8128L15.0128 14.1872C15.2135 14.255 15.4351 14.2873 15.675 14.2873V13.8921ZM15.1423 13.8139C14.9873 13.7587 14.8612 13.6864 14.7603 13.5993L14.5022 13.8985C14.6452 14.0219 14.8156 14.117 15.0097 14.1861L15.1423 13.8139ZM14.7634 13.6021C14.6638 13.5124 14.5883 13.4091 14.5353 13.2912L14.1749 13.4534C14.251 13.6225 14.3596 13.7703 14.4991 13.8958L14.7634 13.6021ZM14.5358 13.2924C14.4831 13.1733 14.4558 13.0429 14.4558 12.8989H14.0606C14.0606 13.0944 14.098 13.2797 14.1744 13.4523L14.5358 13.2924ZM14.4558 12.8989C14.4558 12.7521 14.4832 12.6206 14.5358 12.5018L14.1744 12.3419C14.0978 12.5149 14.0606 12.7014 14.0606 12.8989H14.4558ZM14.5347 12.5043C14.5891 12.3856 14.6664 12.2851 14.7679 12.2011L14.5161 11.8966C14.369 12.0182 14.2549 12.1664 14.1755 12.3394L14.5347 12.5043ZM14.7696 12.1997C14.8713 12.1137 14.9993 12.0439 15.1577 11.9932L15.0373 11.6168C14.8371 11.6808 14.6614 11.7737 14.5144 11.898L14.7696 12.1997ZM15.1593 11.9927C15.3173 11.9407 15.5027 11.9129 15.718 11.9129V11.5177C15.4694 11.5177 15.2411 11.5497 15.0358 11.6173L15.1593 11.9927ZM15.718 11.9129C15.8806 11.9129 16.0256 11.9221 16.1537 11.9397L16.2077 11.5483C16.0584 11.5277 15.895 11.5177 15.718 11.5177V11.9129ZM16.1574 11.9402C16.293 11.9563 16.4169 11.9768 16.5292 12.0015L16.6141 11.6156C16.4873 11.5877 16.3505 11.5652 16.204 11.5478L16.1574 11.9402ZM16.7692 11.8086V11.6938H16.374V11.8086H16.7692ZM16.7692 11.6938C16.7692 11.5753 16.7464 11.4616 16.692 11.3602L16.3437 11.5468C16.361 11.5792 16.374 11.6258 16.374 11.6938H16.7692ZM16.6933 11.3627C16.6422 11.2638 16.5694 11.1822 16.4768 11.1205L16.2576 11.4493C16.2941 11.4737 16.3217 11.5045 16.3423 11.5443L16.6933 11.3627ZM16.4809 11.1233C16.3909 11.06 16.2873 11.0184 16.1748 10.9947L16.0934 11.3814C16.1625 11.396 16.2144 11.419 16.2535 11.4465L16.4809 11.1233ZM16.1796 10.9958C16.0718 10.9702 15.957 10.9582 15.8364 10.9582V11.3534C15.9309 11.3534 16.0146 11.3628 16.0885 11.3803L16.1796 10.9958ZM15.8364 10.9582C15.5988 10.9582 15.3828 10.9821 15.1906 11.0329L15.2914 11.415C15.4435 11.3749 15.6244 11.3534 15.8364 11.3534V10.9582ZM15.1924 11.0324C15.0071 11.0794 14.8285 11.1485 14.657 11.2395L14.8422 11.5886C14.9863 11.5121 15.1354 11.4546 15.2895 11.4155L15.1924 11.0324ZM14.9267 11.3264L14.5824 10.6306L14.2282 10.8058L14.5725 11.5017L14.9267 11.3264ZM14.5171 10.8811C14.7466 10.7236 14.9848 10.6042 15.2317 10.5219L15.1068 10.147C14.8229 10.2416 14.5517 10.3781 14.2935 10.5553L14.5171 10.8811ZM15.2312 10.5221C15.4779 10.4406 15.7402 10.3993 16.0193 10.3993V10.0041C15.7006 10.0041 15.3962 10.0514 15.1073 10.1468L15.2312 10.5221ZM16.0193 10.3993C16.2363 10.3993 16.4329 10.4239 16.6101 10.4715L16.7125 10.0898C16.4976 10.0321 16.2661 10.0041 16.0193 10.0041V10.3993ZM16.6128 10.4722C16.7861 10.516 16.9285 10.5875 17.0444 10.6837L17.2968 10.3797C17.1306 10.2416 16.9334 10.1457 16.7098 10.0891L16.6128 10.4722ZM17.0459 10.685C17.1592 10.7772 17.2508 10.9004 17.3186 11.0606L17.6826 10.9066C17.5925 10.6938 17.4642 10.5158 17.2953 10.3784L17.0459 10.685ZM17.3194 11.0626C17.387 11.2176 17.4249 11.4163 17.4249 11.6651H17.8201C17.8201 11.3783 17.7767 11.1226 17.6817 10.9047L17.3194 11.0626ZM17.4249 11.6651V13.0173H17.8201V11.6651H17.4249ZM17.6225 13.2149H18.1211V12.8197H17.6225V13.2149ZM17.9235 13.0173V14H18.3187V13.0173H17.9235ZM18.1211 13.8024H16.5716V14.1976H18.1211V13.8024ZM16.7692 14V13.7991H16.374V14H16.7692ZM15.7539 13.4408C15.9452 13.4408 16.1245 13.4098 16.2894 13.3444L16.1437 12.977C16.0312 13.0217 15.9021 13.0456 15.7539 13.0456V13.4408ZM16.2894 13.3444C16.4432 13.2834 16.5795 13.2072 16.6955 13.1138L16.4477 12.8059C16.3677 12.8704 16.2673 12.928 16.1437 12.977L16.2894 13.3444ZM16.7692 12.9599V12.4864H16.374V12.9599H16.7692ZM16.5716 12.2888H15.7108V12.684H16.5716V12.2888ZM15.7108 12.2888C15.6354 12.2888 15.5614 12.3004 15.4895 12.3232L15.6093 12.6998C15.6427 12.6892 15.6762 12.684 15.7108 12.684V12.2888ZM15.4895 12.3232C15.4178 12.3461 15.351 12.3793 15.2903 12.4231L15.5217 12.7435C15.547 12.7251 15.5759 12.7105 15.6093 12.6998L15.4895 12.3232ZM15.2859 12.4263C15.2241 12.4736 15.1735 12.5317 15.1345 12.599L15.4765 12.797C15.4902 12.7735 15.5065 12.7551 15.526 12.7402L15.2859 12.4263ZM15.1307 12.606C15.0896 12.6842 15.0721 12.7693 15.0721 12.8559H15.4673C15.4673 12.8229 15.4737 12.8028 15.4804 12.7901L15.1307 12.606ZM15.0721 12.8559C15.0721 13.0194 15.1334 13.1639 15.2527 13.276L15.5233 12.988C15.4849 12.9519 15.4673 12.9123 15.4673 12.8559H15.0721ZM15.2549 13.278C15.3867 13.3982 15.5651 13.4408 15.7539 13.4408V13.0456C15.6175 13.0456 15.552 13.0141 15.5212 12.986L15.2549 13.278ZM21.0765 8.41917V8.22157H20.8789V8.41917H21.0765ZM22.7012 8.41917H22.8988V8.22157H22.7012V8.41917ZM22.7012 13.0173H22.5036V13.2149H22.7012V13.0173ZM23.4257 13.0173H23.6233V12.8197H23.4257V13.0173ZM23.4257 14V14.1976H23.6233V14H23.4257ZM21.5965 14H21.3989V14.1976H21.5965V14ZM21.5965 13.8565H21.7941V13.5315L21.5056 13.6811L21.5965 13.8565ZM21.1984 14.0143L21.145 13.8241L21.1441 13.8244L21.1984 14.0143ZM20.0041 13.9211L19.9253 14.1023L19.9275 14.1033L20.0041 13.9211ZM19.3907 13.5015L19.2482 13.6383L19.2491 13.6392L19.3907 13.5015ZM18.9926 12.881L18.8092 12.9543L18.8094 12.955L18.9926 12.881ZM18.989 11.3531L18.8058 11.279L18.8054 11.28L18.989 11.3531ZM19.3836 10.7361L19.2419 10.5984L19.2409 10.5994L19.3836 10.7361ZM19.9897 10.3237L19.9125 10.1418L19.9119 10.1421L19.9897 10.3237ZM21.2056 10.2197L21.1616 10.4123L21.1649 10.413L21.2056 10.2197ZM21.5965 10.3452L21.5166 10.5259L21.7941 10.6487V10.3452H21.5965ZM21.5965 9.40191H21.7941V9.20432H21.5965V9.40191ZM21.0765 9.40191H20.8789V9.59951H21.0765V9.40191ZM20.8505 13.0818L20.8429 13.2797L20.8565 13.2793L20.8505 13.0818ZM21.2773 12.9599L21.1766 12.7899L21.1752 12.7907L21.2773 12.9599ZM21.5965 12.6586L21.7605 12.7689L21.7941 12.7189V12.6586H21.5965ZM21.5965 11.5647H21.7941V11.5053L21.7614 11.4558L21.5965 11.5647ZM21.2701 11.2706L21.1755 11.4441L21.1793 11.446L21.2701 11.2706ZM20.8505 11.1665L20.8467 11.3642L20.8537 11.3641L20.8505 11.1665ZM20.499 11.2311L20.4236 11.0485L20.4222 11.0491L20.499 11.2311ZM20.2121 11.4248L20.0723 11.285L20.0704 11.2871L20.2121 11.4248ZM20.0184 12.5223L19.8349 12.5957L19.8355 12.597L20.0184 12.5223ZM20.2121 12.8236L20.0703 12.9613L20.0744 12.9653L20.2121 12.8236ZM20.499 13.0101L20.4256 13.1936L20.427 13.1941L20.499 13.0101ZM21.0765 8.61676H22.7012V8.22157H21.0765V8.61676ZM22.5036 8.41917V13.0173H22.8988V8.41917H22.5036ZM22.7012 13.2149H23.4257V12.8197H22.7012V13.2149ZM23.2281 13.0173V14H23.6233V13.0173H23.2281ZM23.4257 13.8024H21.5965V14.1976H23.4257V13.8024ZM21.7941 14V13.8565H21.3989V14H21.7941ZM21.5056 13.6811C21.3881 13.742 21.268 13.7896 21.145 13.8241L21.2518 14.2046C21.4015 14.1626 21.5467 14.1049 21.6875 14.0319L21.5056 13.6811ZM21.1441 13.8244C21.0278 13.8576 20.9098 13.8741 20.7895 13.8741V14.2693C20.9467 14.2693 21.1012 14.2476 21.2527 14.2043L21.1441 13.8244ZM20.7895 13.8741C20.5287 13.8741 20.2932 13.8282 20.0806 13.7389L19.9275 14.1033C20.1931 14.2148 20.4813 14.2693 20.7895 14.2693V13.8741ZM20.0828 13.7399C19.8686 13.6468 19.6858 13.5213 19.5324 13.3637L19.2491 13.6392C19.44 13.8355 19.6661 13.9897 19.9253 14.1023L20.0828 13.7399ZM19.5333 13.3647C19.3817 13.2066 19.2624 13.0213 19.1758 12.8069L18.8094 12.955C18.9141 13.214 19.0603 13.4424 19.2482 13.6383L19.5333 13.3647ZM19.1761 12.8076C19.0903 12.5932 19.0467 12.3624 19.0467 12.1134H18.6516C18.6516 12.4097 18.7036 12.6906 18.8092 12.9543L19.1761 12.8076ZM19.0467 12.1134C19.0467 11.8638 19.0893 11.6354 19.1726 11.4261L18.8054 11.28C18.7022 11.5394 18.6516 11.8179 18.6516 12.1134H19.0467ZM19.1722 11.4271C19.259 11.2123 19.3772 11.0283 19.5262 10.8729L19.2409 10.5994C19.0552 10.7931 18.9104 11.0203 18.8058 11.279L19.1722 11.4271ZM19.5252 10.8739C19.676 10.7189 19.856 10.596 20.0675 10.5053L19.9119 10.1421C19.6547 10.2523 19.4307 10.4043 19.2419 10.5984L19.5252 10.8739ZM20.0669 10.5056C20.2769 10.4165 20.5098 10.3706 20.768 10.3706V9.97545C20.4619 9.97545 20.1759 10.03 19.9125 10.1418L20.0669 10.5056ZM20.768 10.3706C20.9103 10.3706 21.0413 10.3849 21.1616 10.4123L21.2495 10.027C21.0973 9.99231 20.9366 9.97545 20.768 9.97545V10.3706ZM21.1649 10.413C21.288 10.4389 21.4052 10.4766 21.5166 10.5259L21.6765 10.1645C21.5392 10.1038 21.3957 10.0578 21.2463 10.0263L21.1649 10.413ZM21.7941 10.3452V9.40191H21.3989V10.3452H21.7941ZM21.5965 9.20432H21.0765V9.59951H21.5965V9.20432ZM21.2741 9.40191V8.41917H20.8789V9.40191H21.2741ZM20.8565 13.2793C21.0459 13.2736 21.2217 13.2243 21.3794 13.129L21.1752 12.7907C21.0795 12.8485 20.9707 12.8805 20.8445 12.8843L20.8565 13.2793ZM21.3781 13.1299C21.5324 13.0384 21.6604 12.9176 21.7605 12.7689L21.4326 12.5483C21.3653 12.6482 21.2805 12.7283 21.1766 12.7899L21.3781 13.1299ZM21.7941 12.6586V11.5647H21.3989V12.6586H21.7941ZM21.7614 11.4558C21.6593 11.3011 21.5251 11.1801 21.361 11.0951L21.1793 11.446C21.283 11.4997 21.3664 11.5748 21.4316 11.6735L21.7614 11.4558ZM21.3648 11.0971C21.2036 11.0092 21.0301 10.966 20.8473 10.969L20.8537 11.3641C20.9674 11.3623 21.0737 11.3885 21.1755 11.444L21.3648 11.0971ZM20.8543 10.969C20.7041 10.9661 20.5598 10.9922 20.4236 11.0485L20.5744 11.4137C20.6582 11.3791 20.7483 11.3622 20.8467 11.3641L20.8543 10.969ZM20.4222 11.0491C20.2908 11.1046 20.1738 11.1836 20.0724 11.2851L20.3518 11.5645C20.4177 11.4986 20.4921 11.4485 20.5759 11.4131L20.4222 11.0491ZM20.0704 11.2871C19.97 11.3904 19.892 11.5128 19.8355 11.6514L20.2013 11.8007C20.2404 11.705 20.2916 11.6265 20.3538 11.5625L20.0704 11.2871ZM19.8355 11.6514C19.7765 11.796 19.7491 11.9547 19.7491 12.1242H20.1443C20.1443 11.9972 20.1647 11.8905 20.2013 11.8007L19.8355 11.6514ZM19.7491 12.1242C19.7491 12.2919 19.7766 12.4499 19.8349 12.5957L20.2019 12.4489C20.1645 12.3556 20.1443 12.2482 20.1443 12.1242H19.7491ZM19.8355 12.597C19.892 12.7356 19.97 12.8579 20.0704 12.9613L20.3538 12.6859C20.2916 12.6219 20.2404 12.5433 20.2013 12.4476L19.8355 12.597ZM20.0744 12.9653C20.1765 13.0645 20.2939 13.1409 20.4256 13.1935L20.5724 12.8266C20.4889 12.7932 20.4151 12.7453 20.3498 12.6818L20.0744 12.9653ZM20.427 13.1941C20.5587 13.2456 20.6977 13.2737 20.8429 13.2793L20.8581 12.8844C20.7546 12.8804 20.6594 12.8606 20.571 12.8261L20.427 13.1941ZM26.1839 13.7991H26.3815V13.4416L26.0787 13.6319L26.1839 13.7991ZM25.9543 13.9354L26.0451 14.111L26.0498 14.1084L25.9543 13.9354ZM25.7463 14.0215L25.6877 13.8327L25.6819 13.8347L25.7463 14.0215ZM25.5311 14.0717L25.5058 13.8757L25.4996 13.8767L25.5311 14.0717ZM24.6882 14L24.6219 14.1862L24.625 14.1872L24.6882 14ZM24.2435 13.7489L24.1113 13.8958L24.1144 13.8985L24.2435 13.7489ZM23.9673 13.3723L23.7866 13.4523L23.7871 13.4534L23.9673 13.3723ZM23.9673 12.4219L23.7877 12.3394L23.7866 12.3419L23.9673 12.4219ZM24.2542 12.0489L24.3802 12.2011L24.3819 12.1997L24.2542 12.0489ZM24.7097 11.805L24.77 11.9932L24.7715 11.9927L24.7097 11.805ZM25.7929 11.744L25.7659 11.9398L25.7696 11.9402L25.7929 11.744ZM26.1839 11.8086L26.1414 12.0015L26.3815 12.0543V11.8086H26.1839ZM26.1301 11.4535L25.9545 11.5443L25.9559 11.5468L26.1301 11.4535ZM25.9794 11.2849L25.8657 11.4465L25.8698 11.4493L25.9794 11.2849ZM25.7463 11.1881L25.7007 11.3804L25.7056 11.3814L25.7463 11.1881ZM24.8532 11.2239L24.9018 11.4155L24.9036 11.415L24.8532 11.2239ZM24.3618 11.414L24.1847 11.5017L24.2749 11.6838L24.4544 11.5886L24.3618 11.414ZM24.0175 10.7182L23.9057 10.5553L23.7644 10.6523L23.8404 10.8058L24.0175 10.7182ZM24.7815 10.3344L24.7195 10.1468L24.719 10.147L24.7815 10.3344ZM26.2735 10.2806L26.2223 10.4715L26.2251 10.4722L26.2735 10.2806ZM26.7828 10.5317L26.6566 10.6837L26.6581 10.685L26.7828 10.5317ZM27.1128 10.9836L26.9308 11.0606L26.9317 11.0626L27.1128 10.9836ZM27.2347 13.0173H27.0372V13.2149H27.2347V13.0173ZM27.7333 13.0173H27.9309V12.8197H27.7333V13.0173ZM27.7333 14V14.1976H27.9309V14H27.7333ZM26.1839 14H25.9863V14.1976H26.1839V14ZM26.1839 12.9599L26.3078 13.1138L26.3815 13.0545V12.9599H26.1839ZM26.1839 12.4864H26.3815V12.2888H26.1839V12.4864ZM25.0182 12.5833L24.9025 12.423L24.8982 12.4263L25.0182 12.5833ZM24.9178 12.698L24.7466 12.599L24.7429 12.606L24.9178 12.698ZM25.0003 13.132L24.865 13.2761L24.8671 13.278L25.0003 13.132ZM26.0787 13.6319C25.9975 13.6829 25.9242 13.7264 25.8589 13.7624L26.0498 14.1084C26.1231 14.068 26.2029 14.0206 26.289 13.9664L26.0787 13.6319ZM25.8635 13.7599C25.8038 13.7909 25.7452 13.815 25.6877 13.8328L25.8049 14.2102C25.8861 14.185 25.9662 14.1518 26.0451 14.1109L25.8635 13.7599ZM25.6819 13.8347C25.6255 13.8542 25.5669 13.8679 25.5058 13.8758L25.5564 14.2677C25.6436 14.2565 25.7284 14.2367 25.8107 14.2083L25.6819 13.8347ZM25.4996 13.8767C25.4375 13.8867 25.3669 13.8921 25.2872 13.8921V14.2873C25.3844 14.2873 25.4764 14.2807 25.5626 14.2668L25.4996 13.8767ZM25.2872 13.8921C25.0823 13.8921 24.9046 13.8645 24.7515 13.8128L24.625 14.1872C24.8258 14.255 25.0473 14.2873 25.2872 14.2873V13.8921ZM24.7545 13.8139C24.5996 13.7587 24.4735 13.6864 24.3726 13.5993L24.1144 13.8985C24.2574 14.0219 24.4278 14.117 24.6219 14.1861L24.7545 13.8139ZM24.3757 13.6021C24.276 13.5124 24.2005 13.4091 24.1475 13.2912L23.7871 13.4534C23.8632 13.6225 23.9718 13.7703 24.1113 13.8958L24.3757 13.6021ZM24.148 13.2924C24.0953 13.1733 24.0681 13.0429 24.0681 12.8989H23.6729C23.6729 13.0944 23.7102 13.2797 23.7866 13.4523L24.148 13.2924ZM24.0681 12.8989C24.0681 12.7521 24.0954 12.6206 24.148 12.5018L23.7866 12.3419C23.7101 12.5149 23.6729 12.7014 23.6729 12.8989H24.0681ZM24.1469 12.5043C24.2014 12.3856 24.2786 12.2851 24.3802 12.2011L24.1283 11.8966C23.9812 12.0182 23.8672 12.1664 23.7877 12.3394L24.1469 12.5043ZM24.3819 12.1997C24.4836 12.1137 24.6115 12.0439 24.77 11.9932L24.6495 11.6168C24.4493 11.6808 24.2736 11.7737 24.1266 11.898L24.3819 12.1997ZM24.7715 11.9927C24.9296 11.9407 25.115 11.9129 25.3302 11.9129V11.5177C25.0816 11.5177 24.8534 11.5497 24.648 11.6173L24.7715 11.9927ZM25.3302 11.9129C25.4928 11.9129 25.6378 11.9221 25.7659 11.9397L25.8199 11.5483C25.6706 11.5277 25.5072 11.5177 25.3302 11.5177V11.9129ZM25.7696 11.9402C25.9053 11.9563 26.0291 11.9768 26.1414 12.0015L26.2263 11.6156C26.0995 11.5877 25.9627 11.5652 25.8162 11.5478L25.7696 11.9402ZM26.3815 11.8086V11.6938H25.9863V11.8086H26.3815ZM26.3815 11.6938C26.3815 11.5753 26.3586 11.4616 26.3042 11.3602L25.9559 11.5468C25.9733 11.5792 25.9863 11.6258 25.9863 11.6938H26.3815ZM26.3056 11.3627C26.2544 11.2638 26.1816 11.1822 26.089 11.1205L25.8698 11.4493C25.9063 11.4737 25.934 11.5045 25.9546 11.5443L26.3056 11.3627ZM26.0931 11.1233C26.0031 11.06 25.8995 11.0184 25.787 10.9947L25.7056 11.3814C25.7748 11.396 25.8266 11.419 25.8657 11.4465L26.0931 11.1233ZM25.7918 10.9958C25.684 10.9702 25.5693 10.9582 25.4486 10.9582V11.3534C25.5431 11.3534 25.6269 11.3628 25.7008 11.3803L25.7918 10.9958ZM25.4486 10.9582C25.211 10.9582 24.995 10.9821 24.8028 11.0329L24.9036 11.415C25.0557 11.3749 25.2366 11.3534 25.4486 11.3534V10.9582ZM24.8047 11.0324C24.6193 11.0794 24.4407 11.1485 24.2693 11.2395L24.4544 11.5886C24.5986 11.5121 24.7476 11.4546 24.9018 11.4155L24.8047 11.0324ZM24.5389 11.3264L24.1946 10.6306L23.8404 10.8058L24.1847 11.5017L24.5389 11.3264ZM24.1293 10.8811C24.3589 10.7236 24.597 10.6042 24.844 10.5219L24.719 10.147C24.4351 10.2416 24.1639 10.3781 23.9057 10.5553L24.1293 10.8811ZM24.8435 10.5221C25.0901 10.4406 25.3524 10.3993 25.6315 10.3993V10.0041C25.3128 10.0041 25.0085 10.0514 24.7195 10.1468L24.8435 10.5221ZM25.6315 10.3993C25.8486 10.3993 26.0451 10.4239 26.2223 10.4715L26.3247 10.0898C26.1098 10.0321 25.8783 10.0041 25.6315 10.0041V10.3993ZM26.2251 10.4722C26.3983 10.516 26.5407 10.5875 26.6566 10.6837L26.9091 10.3797C26.7428 10.2416 26.5457 10.1457 26.322 10.0891L26.2251 10.4722ZM26.6581 10.685C26.7714 10.7772 26.863 10.9004 26.9308 11.0606L27.2948 10.9066C27.2048 10.6938 27.0764 10.5158 26.9075 10.3784L26.6581 10.685ZM26.9317 11.0626C26.9993 11.2176 27.0372 11.4163 27.0372 11.6651H27.4323C27.4323 11.3783 27.3889 11.1226 27.2939 10.9047L26.9317 11.0626ZM27.0372 11.6651V13.0173H27.4323V11.6651H27.0372ZM27.2347 13.2149H27.7333V12.8197H27.2347V13.2149ZM27.5357 13.0173V14H27.9309V13.0173H27.5357ZM27.7333 13.8024H26.1839V14.1976H27.7333V13.8024ZM26.3815 14V13.7991H25.9863V14H26.3815ZM25.3661 13.4408C25.5574 13.4408 25.7368 13.4098 25.9016 13.3444L25.7559 12.977C25.6434 13.0217 25.5143 13.0456 25.3661 13.0456V13.4408ZM25.9016 13.3444C26.0554 13.2834 26.1917 13.2072 26.3078 13.1138L26.06 12.8059C25.9799 12.8704 25.8795 12.928 25.7559 12.977L25.9016 13.3444ZM26.3815 12.9599V12.4864H25.9863V12.9599H26.3815ZM26.1839 12.2888H25.3231V12.684H26.1839V12.2888ZM25.3231 12.2888C25.2477 12.2888 25.1737 12.3004 25.1018 12.3232L25.2216 12.6998C25.2549 12.6892 25.2885 12.684 25.3231 12.684V12.2888ZM25.1018 12.3232C25.03 12.3461 24.9632 12.3793 24.9025 12.4231L25.1339 12.7435C25.1593 12.7251 25.1881 12.7105 25.2216 12.6998L25.1018 12.3232ZM24.8982 12.4263C24.8363 12.4736 24.7857 12.5317 24.7468 12.599L25.0888 12.797C25.1024 12.7735 25.1188 12.7551 25.1382 12.7402L24.8982 12.4263ZM24.7429 12.606C24.7018 12.6842 24.6843 12.7693 24.6843 12.8559H25.0795C25.0795 12.8229 25.0859 12.8028 25.0926 12.7901L24.7429 12.606ZM24.6843 12.8559C24.6843 13.0194 24.7456 13.1639 24.865 13.276L25.1356 12.988C25.0971 12.9519 25.0795 12.9123 25.0795 12.8559H24.6843ZM24.8671 13.278C24.9989 13.3982 25.1773 13.4408 25.3661 13.4408V13.0456C25.2297 13.0456 25.1642 13.0141 25.1334 12.986L24.8671 13.278Z" fill="#ffb17a"/>
</svg>
