<svg width="226" height="239" viewBox="0 0 226 239" fill="none" xmlns="http://www.w3.org/2000/svg">
<path d="M46.99 185.308L75.7827 172.122C76.7397 171.684 77.8726 172.062 78.374 172.987L110.686 232.631C111.441 234.025 113.44 234.028 114.2 232.637L146.791 172.973C147.293 172.054 148.42 171.678 149.373 172.111L178.534 185.35C180.129 186.074 181.818 184.543 181.254 182.884L171.647 154.639C171.39 153.884 171.607 153.048 172.198 152.513L219.494 109.681C220.621 108.66 220.242 106.805 218.805 106.308L155.424 84.4176C154.942 84.2511 154.542 83.9068 154.305 83.455L114.003 6.49465C113.243 5.04373 111.156 5.07124 110.435 6.5417L71.948 85.0032C71.7192 85.4697 71.3179 85.8287 70.829 86.0045L7.23233 108.87C5.78966 109.389 5.44302 111.271 6.60625 112.27L53.4774 152.508C54.1012 153.043 54.3337 153.906 54.0635 154.682L44.2683 182.833C43.6894 184.496 45.3884 186.042 46.99 185.308Z" stroke="white" stroke-width="10"/>
</svg>
