<svg width="16" height="18" viewBox="0 0 16 18" fill="none" xmlns="http://www.w3.org/2000/svg">
<path d="M10.5881 9.40867C11.6322 9.40867 12.6336 8.99391 13.3718 8.25562C14.1101 7.51734 14.5249 6.51601 14.5249 5.47191C14.5249 4.42782 14.1101 3.42649 13.3718 2.68821C12.6336 1.94992 11.6322 1.53516 10.5881 1.53516C9.54405 1.53516 8.54272 1.94992 7.80443 2.68821C7.06615 3.42649 6.65138 4.42782 6.65138 5.47191C6.65138 6.51601 7.06615 7.51734 7.80443 8.25562C8.54272 8.99391 9.54405 9.40867 10.5881 9.40867ZM3.50505 14.9186C4.13191 14.9186 4.7331 14.6696 5.17635 14.2263C5.61961 13.7831 5.86863 13.1819 5.86863 12.555C5.86863 11.9281 5.61961 11.327 5.17635 10.8837C4.7331 10.4404 4.13191 10.1914 3.50505 10.1914C2.87818 10.1914 2.27699 10.4404 1.83374 10.8837C1.39048 11.327 1.14146 11.9281 1.14146 12.555C1.14146 13.1819 1.39048 13.7831 1.83374 14.2263C2.27699 14.6696 2.87818 14.9186 3.50505 14.9186ZM11.3786 16.8831C11.6365 16.8831 11.892 16.8323 12.1304 16.7336C12.3687 16.6349 12.5853 16.4902 12.7677 16.3077C12.9501 16.1253 13.0948 15.9087 13.1936 15.6704C13.2923 15.432 13.3431 15.1766 13.3431 14.9186C13.3431 14.6606 13.2923 14.4051 13.1936 14.1668C13.0948 13.9284 12.9501 13.7119 12.7677 13.5295C12.5853 13.347 12.3687 13.2023 12.1304 13.1036C11.892 13.0049 11.6365 12.9541 11.3786 12.9541C10.8575 12.9541 10.3578 13.161 9.98942 13.5295C9.621 13.8979 9.41402 14.3976 9.41402 14.9186C9.41402 15.4396 9.621 15.9393 9.98942 16.3077C10.3578 16.6762 10.8575 16.8831 11.3786 16.8831Z" stroke="#484349" stroke-width="1.64153" stroke-miterlimit="10"/>
</svg>
