<svg width="24" height="24" viewBox="0 0 24 24" fill="none" xmlns="http://www.w3.org/2000/svg">
<g clip-path="url(#clip0_640_5621)">
<path d="M7.2 17.6031C8.96731 17.6031 10.4 16.1704 10.4 14.4031C10.4 12.6358 8.96731 11.2031 7.2 11.2031C5.43269 11.2031 4 12.6358 4 14.4031C4 16.1704 5.43269 17.6031 7.2 17.6031Z" fill="#FEFBFF"/>
<path d="M14.8008 20C15.9054 20 16.8008 19.1046 16.8008 18C16.8008 16.8954 15.9054 16 14.8008 16C13.6962 16 12.8008 16.8954 12.8008 18C12.8008 19.1046 13.6962 20 14.8008 20Z" fill="#FEFBFF"/>
<path d="M15.1984 13.6C17.8494 13.6 19.9984 11.451 19.9984 8.8C19.9984 6.14903 17.8494 4 15.1984 4C12.5475 4 10.3984 6.14903 10.3984 8.8C10.3984 11.451 12.5475 13.6 15.1984 13.6Z" fill="#FEFBFF"/>
</g>
<defs>
<clipPath id="clip0_640_5621">
<rect width="24" height="24" fill="white"/>
</clipPath>
</defs>
</svg>
